<?xml version="1.0" encoding="UTF-8"?>
<svg id="Design" xmlns="http://www.w3.org/2000/svg" version="1.1" viewBox="0 0 900 700">
  <!-- Generator: Adobe Illustrator 30.1.0, SVG Export Plug-In . SVG Version: 2.1.1 Build 136)  -->
  <defs>
    <style>
      .st0 {
        fill: #34001d;
      }
    </style>
  </defs>
  <g>
    <g>
      <path class="st0" d="M150.2,327.98c.56.02.06,4.85-.55,6.65s-3.47,4.39-3.89,4.66-.69.78-.23.69,3.56-1.99,4.8-4.8c1.25-2.82,1.29-7.02,1.25-7.62s.32-1.02.69-.97.74-.37.23-.46-.55-.42-1.2-.42-.83.28-1.65.46c-2.73.6-4.86,1.62-6.38,4.34-1.52,2.72-1.57,4.94-1.57,6.33s.48.65,1.16.18.59-.09.27-1.34-.23-1.99.42-3.65c.65-1.66,2.82-4.2,6.65-4.06Z"/>
      <path class="st0" d="M140.05,325.3c1.58-1.13,6.07-3,7.19-3.56s1.58-.51,1.72.23c.14.74-5.08,2.93-6.79,3.97-6.6,4.02-5.19,8.3-4.66,9.51.29.67,1.71.37,1.02.88s-1.89-.28-2.31-.74-.46-3.46,0-5.31c.46-1.85,2.03-3.69,3.83-4.99Z"/>
      <path class="st0" d="M163.78,339.54c1.27-.57,1.53-.72,2.3-1.34s.93-.72.72.36.05,2.01-1.75,2.78c-1.8.77-2.11.98-2.26,1.7s.21,1.54,0,1.96-1.34.36-1.59,1.13c-.26.77-2.1-.26-1.97-.93s1.67-1.68,2.69-3.13,1.86-2.53,1.86-2.53Z"/>
      <path class="st0" d="M165.31,343.96c1.11-1.27,1.59-2.26,2.01-3.5.41-1.23.63-1.18.88-.87s.56.28-.26,2.09-1.9,4.13-2.26,4.95c-.36.82-1.18.29-1.49-.24s-.26-.84,1.13-2.44Z"/>
      <path class="st0" d="M170.85,450.88c0-1.93.05-3.09,1.93-4.68,1.88-1.59,13.31-20.39,13.89-24.15.58-3.76,1.45-9.31-2.65-20.92-4.1-11.62-4.72-16.1-6.07-18.51-1.35-2.41-2.31-3.81-6.51-6.46-4.19-2.65-8.49-5.35-8.97-5.64-.28-.17-1.88-5.88-1.16-8.24.72-2.36,2.94-2.07,6.61-3.52,3.66-1.45,8.92-6.27,9.35-8.1.43-1.83,1.01-10.51-1.98-17.84-2.99-7.33-3.71-7.81-4.72-7.86-1.01-.05.13-1.01-1.19-3.37-1.32-2.36-6-8.58-10.09-12.82-4.1-4.24-7.91-7.52-8.15-8.05-.24-.53-.53-7.18,0-11.67.53-4.48,2.65-12.39,2.36-12.68-.29-.29-.48,1.54-1.59,1.4-1.11-.14-2.6-1.01-3.57-.43-.96.58-1.54,1.16-2.6,1.16s-8.29,1.49-8.44,6.46c-.14,4.97,1.74,6.85,1.74,8.2s-.19,3.71-4.05,1.83-5.54-.53-5.74.92c-.19,1.45-.87,2.75-1.25,1.74-.39-1.01-2.99-2.46-4-2.65-1.01-.19.19-3.81,3.33-7.42,3.13-3.62,3.62-4.82,3.62-4.82,0,0-8.53,4.58-12.05,19-3.52,14.42-4.82,23.62-4.82,23.62,0,0,1.54.39.92,1.16-.63.77-2.07,2.41-2.6,7.42-.53,5.01-3.52,11.23,3.95,22.08,7.47,10.85,7.15,2.6,7.31,3.09s.5,4.68,3.3,6.41c2.8,1.74,3.76,1.4,3.62,2.51-.14,1.11-1.59.96-2.12,1.45-.53.48-9.31,10.8-9.59,11.38-.29.58.63,1.88-.67,2.02-1.3.14-3.66.82-5.45,5.64-1.78,4.82-2.83,6.61-2.21,6.97,1.02.59.33-.13,2.07-2.83s2.94-5.3,5.11-7.04c2.17-1.74,1.74-3.33,2.75-2.84s3.42,5.3,8.97,8.77c5.54,3.47,7.96,3.66,8.68,3.47s.77-.63,1.01,1.88c.24,2.51,1.45,8.68,1.98,9.74.53,1.06.58,2.31-.14,2.51s-8.44,2.46-8.63,2.46.05-1.01-.29-.96-.82.63-1.4.96-.39,1.93-.92,1.88c-.53-.05-2.6.1-3.04-.53-.43-.63-.58-4.05-.1-6.56.48-2.51.82-2.6.24-2.94-.58-.34-1.25-.67-1.69-.1-.43.58-2.94,6.61-2.27,7.09s1.6,3.52.8,4.1c-.8.58-8.95,4.39-10.25,7.71-1.3,3.33-.24,1.64.19,1.93.43.29,1.35,1.51,2.02.18.67-1.33,1.78-3.41,4.34-4.76,2.56-1.35,4.15-2.02,4.34-.39.19,1.64.67,5.83,1.69,9.26,1.01,3.42,1.3,3.66-1.93,5.5-3.23,1.83-10.03,6.41-10.94,8-.92,1.59-.87,2.41-1.21,2.99-.34.58.92-.1,1.16.67.24.77-.77,5.3-.48,8.77.29,3.47-1.83,45.13-1.78,47.44.05,2.31-.1,2.02-.53,2.84-.43.82.34,3.37,1.35,2.99,1.01-.39,1.3-3.57,3.86-3.66,2.56-.1,25.99-3.04,33.7-4.05,7.71-1.01,20.64-3.66,22.13-2.94,1.49.72,1.54.67,2.56-.53,1.01-1.21,1.01-3.18.1-3.52-.92-.34-1.54-.05-1.74-.72-.19-.67-3.62-4.58-4.29-13.74-.67-9.16,1.3-14.75.92-16.54-.39-1.78-2.12-3.66-1.21-5.35.92-1.69,3.23-3.81,3.23-5.74ZM165.83,320.03c.68.16,1.91,2.02,2.64,4.8.19.72-1.61,1.7-2.92,2.32-2.33,1.09-5.75,1.26-6.17.95-.42-.31-1.21-4.24,1.9-6.91,2.1-1.81,4.56-1.15,4.56-1.15ZM161.74,314.77c.26.16,1.99,2.55,1.99,3.23s-1.73,1.84-3.36,2.21c-2.86.64-2.91,2.62-2.91,2.62,0,0-.54-2.94,1.48-5.24,1.63-1.86,2.8-2.82,2.8-2.82ZM153.69,306.68c1.88,1.88,6.27,5.11,6.46,6.27.19,1.16-3.52,5.69-4.29,7.23-.77,1.54-.19,4.58.29,6.36.48,1.78,2.12,4.29,3.86,6.56,1.74,2.27,1.54,3.23,1.06,4.05-.48.82-3.33,1.83-3.91,1.78-.58-.05-1.16-1.92-1.3-1.78-2.84,2.7-2.89,4.1-2.31,4.34.58.24,3.37-.77,6.51-2.17,3.13-1.4,3.09-3.52,2.7-4.39-.39-.87-.71-2.16-.47-3.51.24-1.35,2.03-1.31,3.67-1.89,1.64-.58,3.36-3.47,3.89-3.08.53.39,2.31,5.21,3.62,8.15,1.3,2.94,2.02,8.77,1.93,9.26s-2.75.29-3.91.19c-1.16-.1-1.11-.92-1.49-.77-.39.14-1.59,2.31-1.01,2.31s3.23.1,4.05.34c.82.24,2.46,1.74,2.65,2.41.19.67-1.59,3.18-2.31,3.57-.72.39-.72-1.45-1.3-2.07-.58-.63-1.25-.24-2.84-.29-1.59-.05-1.11,1.25-.43,1.3.67.05.72.53,1.11.96.39.43.96.53,1.21,1.16s-.72.72-2.22.96c-1.49.24-3.57-1.74-4.27-1.69-.71.05-.79,1.16-.45,1.69.34.53,1.16,2.12-.87,2.46s-3.71-.82-4.58-.92c-.87-.1-1.3,1.3-1.83,1.64s-1.59-.67-1.88.24c-.29.92,1.35,1.16,2.27,1.21.92.05,1.45.34,1.74,1.3.29.96.05,17.07-.05,17.89-.1.82-1.35,5.26-10.51,7.76-9.16,2.51-15.62-4.63-16.05-5.11s0-5.26.24-8.29c.24-3.04.05-2.89-.43-3.57-.48-.67.67-1.93,2.22-2.84,1.54-.92,3.71-.82,6.7-3.13,2.99-2.31,2.94-5.64,3.23-5.3.29.34.24,3.28-.39,4.19-.63.92-.72,2.7-.14,2.22.58-.48,2.27-6.07,1.83-7.81-.43-1.74-1.54-2.84-3.12-5.35-1.58-2.51-2.42-2.31-3.39-2.27s-2.75.19-6.65.48c-3.91.29-6.8-4.39-8.1-8.34-1.3-3.95-.39-8.92,0-9.02.39-.1.67-1.88,0-2.22s-.96-1.11-.24-1.74c.72-.63.1-1.98-.39-2.89-.48-.92.67-3.76,1.35-5.01.67-1.25,5.3-5.26,6.85-6.27s7.91-5.74,10.65-7.28c2.75-1.54,6.41-3.57,6.7-3.33s2.51,2.17,4.39,4.05ZM118.62,308.12c1.29-5.09,4.88-10.75,7.24-9.75,2.37,1,1.79,5.52,3.44,5.59,1.65.07,1.15-1.65,1.72-4.66.57-3.01,1.36-2.29,5.23-1,3.87,1.29,5.66-3.58,5.66-5.45s-1.79-4.23-2.01-6.45c-.22-2.22,1.29-3.87,3.44-4.88s6.31-.72,6.31-.72c0,0-.5,8.82-1.02,14.55-.52,5.74-1.06,5.45-2.21,5.95s-6.6,3.94-12.12,7.17c-5.52,3.23-16.85,13.12-17.21,12.69-.36-.43.22-7.96,1.51-13.05ZM124.45,357.18c-.47.59-7.56,1.11-10.6-12.3-3.05-13.41,4.98-21.38,6.38-22.67,1.4-1.29,2.58-1.35,2.17-.29-.41,1.05-1.93,4.98-2.17,14.06-.23,9.08,8.17,13.31,8.49,14.06.41.94-.61,2.89-1.72,3.13-1.11.23-4.21.58-7.84-6.5-3.63-7.09-.98-17.44-1.16-18.18-.15-.61-2.52,5.27-1.46,13,1.05,7.73,4.86,11.54,7.09,12.89,2.23,1.35,1.28,2.23.81,2.81ZM130.16,359.01c.15-2.4,2.75-3.25,3.65-3.25s.4,2.15,1.3,2.85c.9.7.7,2.1.7,2.1,0,0,1.3-1.05,2-1.05s.4,1.7.55,1.52c.15-.18,1.2-2.22,1.1-3.42-.1-1.2-2.85-3.7-3.85-4.91-1-1.2-2.25-.1-3.6,1.2-1.35,1.3-2.55,2.45-3.45,4.46-.9,2-1.12,3.05-1.65,2.65-.2-.15-1-1-1-2.5s.6-2.6,1.6-2.6,1.6-1.35,1.6-2.5,1.15-2.65,1.7-3.15c.55-.5,4.56-.15,6.96,0,2.4.15,1.9.2,3.2,1.94,1.3,1.74,2.15,3.07.75,6.22-1.4,3.15-4.05,4.71-6.61,4.71s-5.11-1.85-4.96-4.25ZM129.21,370.63c.33-.51.59-.79,1.14-.6.17.06.45,2.69.45,6.03s.34,3.85-1.27,3.68-.89-3.29-.71-4.47c.36-2.39.24-4.4.39-4.64ZM124.57,382.37c-2.29-3.57-.64-3.9,0-3.87.64.03,2.38,4.9,6.04,7.54,3.66,2.64,9.9,4.35,14.89,3.37,16.75-3.28,15.85-15.19,17.23-15.1,1.11.07,3.57,2.01,4.58,2.84,1.01.82-.73,1.65-1.46,2.93s-12.13,13.09-22.95,12.72c-10.82-.37-16.04-6.86-18.32-10.43ZM132.13,414.25c.18-1.14,11.11-3.75,13.28-4.34,2.17-.59,5,1.78,6.38.85,1.38-.92,3.02-1.05,4.54.2,1.51,1.25,7.04,5.06,7.69,6.31.66,1.25,1.58,3.16.79,4.54-.79,1.38-3.55.66-6.64-2.89-3.09-3.55-2.37-4.14-3.42-4.21-1.05-.07-3.09-.99-4.14-.92-1.05.07-2.56,1.71-3.48,1.32-.92-.39-1.05-1.05-2.17-.33s-1.64.86-.53,1.55c1.12.69,4.93-.46,6.31-.18,1.38.28,3.48,2.12,4.08,3.11s.26,6.9.2,8.02c-.07,1.12-2.3,2.76-2.37,1.64-.07-1.12-.66-6.18-1.12-7.17-.46-.99-1.61-2.16-2.91-2.2-1.3-.04-3.08.04-4.52,0-1.45-.04-2.56.88-2.56,1.87s2.37,1.18,4.47,1.18,3.16-.59,3.62-.13c.46.46,1.51,5.68,1.51,6.82s-1.17,1.93-2.49,2.26c-1.32.33-1.45-.17-1.65-1.8-.2-1.62-.13-4.71-1.25-5.04-1.12-.33-3.55-.46-4.27-.46s-2.24,1.18-1.38,1.58c.85.39,3.42-.26,4.27.72.85.99.99,3.74.99,5.09s-1.12,2.07-2.1,1.94-.72-2.1-.79-3.22c-.07-1.12.59-2.43-1.71-2.3-2.3.13-3.48,1.12-4.54.53s-1.78-.07-2.43-3.02c-.66-2.96-2.37-6.84-1.65-11.31ZM173.76,417.51c.07.99-3.53,4.95-3.53,4.95l-3.32,1.63c-3.32,1.63-5.58,5.37-8.62,10.89-3.04,5.51-3.96,9.4-4.03,11.37-.07,1.97-.21,5.31-1.63,6.86-1.41,1.56-6.43,1.2-8.84,1.39-2.4.18-4.17,1.44-8.62,3.56-4.45,2.12-5.66,5.3-6.22,6.08-.57.78-.49-2.41-.99-3.26-.39-.67-.26-2.62.08-3.5.17-.43,1.8-3.58,2.17-4.18.45-.72,2.95-7.76,3.57-8.06.38-.19,2.51.45,3.29,1.11,1.7,1.41,4.75,3.32,6.3,3.18s5.58-2.12,5.86-2.94c.28-.81-.07-1.73.85-2.08.92-.35,2.05-1.7,1.13-2.47-.92-.78-2.66-.28-2.57-1.13.09-.85-1.53-3.25-2.31-3.25s-1.13.99-1.13-.92,3.11-3.61,4.31-3.82,2.62.42,4.6-.78,3.37-2.83,3.62-3.82c.65-2.54-1.52-3.97-.51-5.73.51-.9,1.41-.91,3.96.43,4.23,2.23,5.84-1.02,5.71-3.25-.14-2.39-.97-4.82-2.45-7.01-1.48-2.19-8.06-5.8-9.47-6.57s-1.06,0-1.77.49c-.71.49-2.97-.64-5.2.71s-2.29.64-2.79-.14c-.5-.78,2.47-5.94,2.79-6.79.31-.85.89-1.34,1.81-1.06.92.28,7.35,4.24,10.63,6.15,3.28,1.91,11.07,8.34,12.41,9.12,1.34.78.85,1.84.92,2.83ZM157.44,454.01c.66.74,1.89,2.5,1.56,3.03-.33.53-1.93.63-2.87-.6-.94-1.24-1.31-2.51-1.27-3.21.03-.53,1.93.04,2.58.78ZM125,451.51c.62-.87,2.92-5.28,3.79-7.06.62-1.26,1.27-2.58,1.57-3.63.08-.27,1.43.46,1.33.7-1.08,2.54-2.39,6.63-2.77,7.88-.56,1.8-1.55,3.11-1.87,4.48-.16.69-.54,1.97-.81,3.08-.04.16-.68.11-1.04.08-.19-.02-.51-.02-.52-.18-.15-1.9-.08-4.77.33-5.34ZM124.09,453.15c-.06.78-.15,2.04-.26,3.16-.01.13-.75-.32-1.35-.26-1.51.14,3.14-8.41,5.05-11.88.31-.56.57-1,.82-1.39-.12,1.06-.33,2.24-.92,3.52-.87,1.87-1.91,3.69-2.59,4.25-.68.56-.62.96-.74,2.61ZM146.37,444.69c.62,0,1.71-.05.72,1.19-.98,1.24-4.91,1.45-6.36.31-1.45-1.14-2.59-3.47-4.09-4.66-.4-.32-.8-.69-1.2-1.08,1.04-1.76,2.52-4.23,3.31-5.56.06.04.09.1.16.12.78.28,1.71,1.29,2.48,1.34.78.05.18,1.81,1.48,2.28,1.31.47,2.34.72,3.22,1.76.88,1.03-.36,4.29.26,4.29ZM138.4,434.41c-.88,1.48-2.39,3.93-3.46,5.54-.14.22-1.4-.94-1.3-1.21.88-2.23,2.91-6.83,3.44-7.4.6-.64,1.44-1.66,1.8-.88.29.63-.84,2.82-.48,3.94ZM135.38,433.59c-.47,1.11-1.24,2.77-2.46,4.64-.09.14-2.89-.46-1.62-2.14,1.84-2.42,3.7-6.26,4.62-5.74.42.24-.12,2.23-.54,3.23ZM128.18,452.63c.87-1.95,3.05-7.71,4.24-10.49.13-.29,1.15.67,1.04.94-.89,2.18-2.5,5.93-2.73,6.88-.29,1.18-.92,2.11-3.22,7.13-.02.05-.56.02-.54-.08.33-1.35.68-3.16,1.22-4.38ZM126.54,417.34c.2-1.12,2.66-1.35,2.79-.51.39,2.5,1.88,8.07,2.6,10.7.72,2.63-.72,1.97-1.84,2.17-1.12.2-1.23-.25-1.58-1.12-1.74-4.3-2.17-10.13-1.97-11.24ZM115.44,443.4c.98-2.46,10.11-8.25,12.57-9.23,2.45-.98,2.8-1.08,1.3,1.77s-10.32,19.84-11.7,22.19c-1.39,2.36-2.96,1.96-2.86-1.08.1-3.04.1-12.18.69-13.65ZM115.52,499.57c-.07.85-.32,1.5-1.04,1.5s-.99.07-.99-1.57,1.05-26.29,1.05-26.29c.78,0,1.5,1.5,2.68,3.66,1.18,2.16,2.22,2.75,2.09,3.86-.13,1.11-1.36,5.29-2.34,10.23-.85,4.27-1.39,7.75-1.45,8.6ZM129.25,498.65c.13.92-1.96,1.57-5.56,1.9-3.6.33-6.15.26-6.08-.78.07-1.05,3.23-17.41,3.7-17.77.21-.16,1.5.85,3.82,1.1,1.83.2,3.77.26,4.23.53.46.26-.24,14.12-.11,15.04ZM125.14,479.19c-4.06-1.45-4.41-3.93-6.13-7.37-1.72-3.44-2.59-7.1-2.6-8.75-.01-1.65,2.81-2.27,2.92-.76.1,1.52,2.28,7.23,3.15,9.92.87,2.69,3.22,3.03,4.87,3.31s11.5-2.69,12.68-3.38c1.17-.69,1.79-1.86,1.31-2.31s-7.37,3.24-10.26,3.36c-2.89.12-4.06-1.05-5.24-1.4-1.17-.34-1.45-5.65-1.45-5.65,0,0-1.31.48-1.45-.34-.14-.83-1.31-3.1-.76-4.2.55-1.1,1.86-1.24,1.86-.21s.41,2,.41,2c0,0,.34-.69,1.1-1.1s1.65.21,1.72,2.62c.07,2.41,2.03,4,2.03,4,0,0,.51-1.38,1.62-1.24s2.34,1.72,2.34,1.72c0,0,5.86-2.69,7.65-3.1s3.03-.62,3.03-.62c0,0,1.58-1.24,2.2-1.93.62-.69-.21-.48-1.58-.28-1.38.21-3.58-.21-5.24.07s-4.68,2.62-5.92,2.62-1.85-.76-1.48-2.34c.38-1.58.69-1.38,4.6-2.82,3.91-1.45,4.18-3.93,6.11-4.41,1.93-.48,7.99.28,9.99.48,2,.21,2.14,1.58,2.96,2.58,1.56,1.9,2.89,2.93,1.65,4.93-1.24,2-9.78,11.02-16.67,13.36-6.89,2.34-11.37,2.69-15.43,1.24ZM135.33,497.6c0,.72-.46.85-1.18.92-.72.07-2.29.59-2.22-1.31.07-1.9.52-12.49.65-13.8,0,0,3.73-1.24,3.92-1.05.2.2-1.18,14.52-1.18,15.24ZM148.28,495.84c-.39.59-10.2,2.09-10.66,1.96s.52-15.3,1.5-16.35c.59-.63,8.18-3.86,9.52-5.03s.03,18.83-.36,19.42ZM169.04,492.34c-.24.88-.08,1.52-1.67,1.36s-14.75,2.39-14.99,1.44c-1.13-4.53-.24-17.46-.32-20.18-.08-2.71,3.19-3.99,5.5-7.5,2.31-3.51,6.86-13.8,7.26-13.88.4-.08-.16,3.75,0,6.3.16,2.55.4,8.37.4,15.63s1.59,9.65,2.15,13c.56,3.35,1.91,2.95,1.67,3.83ZM160.59,454.22c-.66.62-1.28-1.24-2.01-2.05-.73-.81-2.47-1.39-2.55-1.78-.2-1,.58-4.95,1.71-8.78,1.13-3.84,3.77-10.17,5.11-11.86s6.04-3.3,7.29-3.49,2.3,1.44,4.41,2.4c2.11.96,1.53.29,2.4-1.15.86-1.44.48-3.36-1.26-4.12-1.74-.77-3.16,1.06-3.73-.35-.58-1.4,2.69-3.3,3.26-3.87.58-.58.58-4.32.47-5.56-.1-1.25-1.33-1.15-1.89-1.63-.56-.48.17-1.25.94-1.25s.96.67,1.53-2.4c.58-3.07-.1-5.95-.58-5.85-.49.1-1.72,3.55-2.77,6.14-1.06,2.59-2.3.86-3.85-.29-1.54-1.15-2.1-2.01-1.62-2.59.48-.58,1.25-1.63,1.62-3.17.37-1.53-2.01-5.75-2.01-8.34s-1.53-.77-3.23,1.25c-1.7,2.01-.7,3.84-.7,5.95s-.58,2.49-1.82,1.63c-1.25-.86-10.45-5.95-11.65-6.62-1.19-.67-2.93,2.01-4.27,5.66s-2.49,3.84-2.49,3.07.38-6.23.48-7.86c.1-1.63-.29-2.3,1.25-2.59,1.53-.29,3.84-.1,12.33-4.89,8.49-4.8,11.74-11.32,12.51-11.32s-.38,1.25-.39,2.21c0,.96,1.35,3.74,1.33,2.3-.02-1.44.98-2.88,1.65-2.88s1.15,2.59,1.25,4.03c.1,1.44,5.28,10.45,8.63,18.51,3.36,8.06,3.17,16.78,2.3,19.04-.86,2.26-2.21,4.65-6.04,10.15-3.84,5.5-16.94,21.75-17.6,22.36Z"/>
    </g>
    <g>
      <path class="st0" d="M162.23,322.16c.84-.89,3.2-.58,3.74,0s.44,2.44-.98,3.56-3.06.57-3.26,0-.29-2.73.5-3.56Z"/>
      <path class="st0" d="M146.97,329.81c.59,0,2.35,1.23,2.05,3.56-.3,2.33-2.38,1.89-3.05,1.72s-1.75-1.54-.96-3.2,1.54-2.08,1.95-2.08Z"/>
      <g>
        <path class="st0" d="M137.07,505.07c-1.16.72-1.21,1.38.99,1.23s18.09-1.18,23.32-1.23c5.23-.04,81.05.83,84.71,0s9.12-2.17,9.4-1.67-.83,1.84,2.24,1.84h63.8c13.28,0,18.14.21,20.41.21,1.39,0-3.33-4.25-4.54-4.25-2.98,0-7.14,1-8.18-.16-1.05-1.16-2.96,1.34-6.27,0-3.31-1.34-18.42-10.24-25.39-9.37-6.97.87-21.28,8.47-26.33,8.47s-9.24,1.92-8.19-.35c1.05-2.27,17.02-13.87,25.81-22.26,8.79-8.4,23.02-18.49,36.1-40.24,13.08-21.75,16.12-38.93,18.25-60.68,2.13-21.75,3.5-39.39-7.45-66.61-5.61-13.94-16.46-34.8-34.87-44.86-19.04-10.4-43.81-6.48-52.12-3.81-17.03,5.47-25.24,12.47-25.24,12.47,0,0-.15,2.59-.76,4.71-.61,2.13,1.37,3.8,1.82,2.59.46-1.22,6.39-7.76,7.15-7.76s4.41,1.67,8.36-.76,5.17-4.41,4.26-4.87c-.91-.46.46-3.19,5.02-3.35,4.56-.15,12.32,3.19,15.97,2.89s9.58-5.32,14.6-4.56c5.02.76,4.26,3.5,5.17,5.78.91,2.28,2.59,5.17,11.71,6.39,9.12,1.22,16.88,4.41,17.18,11.86s-3.44,32.46-3.95,36.09c-.3,2.12.12,5.96.43,5.8,3.59-1.84,13.25-3.29,19.33,2.05,6.08,5.34,9.43,16.4,2.89,21.88-6.54,5.47-19.37,2.57-21.32,2.23-.87-.15-.66,2.51-.41,3.58.29,1.28,3.04,1.37,4.26,3.04s6.39,13.89,9.43,21.08c3.04,7.2,5.17,12.98,7.3,15.11,2.13,2.13,1.06,4.11-.61,4.26s-5.32-3.04-7.91-7.15c-2.59-4.11-8.21-8.21-12.32-7.3-4.11.91-9.12,6.21-9.12,11.92s2.59,13.93,8.06,15.6c5.47,1.67,9.73-1.67,13.38-2.28,3.65-.61,6.39.3,4.56,2.74s-12.17,13.53-22.51,19.01c-10.34,5.47-14.75,8.21-16.27,8.36s2.28.61,3.95,1.52,9.12,7,4.41,15.66c-4.71,8.67-10.95,6.41-13.08,4.42s-3.65-4.88-3.65-4.88c0,0-2.28.76-2.89,1.06s2.89,7.91.61,12.77c-2.28,4.87-5.02,9.84-11.71,17.16-6.69,7.32-10.34,10.03-16.73,10.58s-30.57-.39-34.98,0c-4.41.39-5.47-.67-5.32-4.93s-.15-8.97-4.71-13.08c-4.56-4.11-8.88-.76-12.73,1.52-3.85,2.28-4.3,1.98-2.78-.91,1.52-2.89,5.02-8.75,5.02-10.46s-1.67-1.25-1.22-2.62c.46-1.37,4.87-3.63,5.47-6.22.61-2.6-2.43-.77-2.43-1.99s3.65-.43,4.41-2.73c.76-2.29,9.28-14.91,10.19-17.8.91-2.89,3.19-3.8,3.35-5.17.15-1.37,1.37-4.11.61-3.8-.76.3-4.56,5.17-12.32,4.11-7.76-1.06-8.52-9.12-8.36-15.28s2.43-12.3,6.08-11.89,11.1,5.73,11.56,5.88,1.37-.61,1.22-3.8c-.15-3.19-11.1-28.59-12.32-31.17-1.22-2.59-2.74-6.43-.76-6.41s9.73,2.91,13.38-1.96c3.65-4.87,6.23-9.56,3.8-15.65-2.43-6.09-4.89-8.42-6.54-8.68-2.73-.43-5.3,1.61-7.6,5.17-1.04,1.6-3.65,1.64-2.43-3.06s12.01-36.63,14.29-42.26c2.28-5.63,1.52-5.78-2.13-8.82-3.65-3.04-18.02-14.76-21.31-17.64-3.91-3.43-6.82-10.03-8.65-13.07s-2.89-2.74-5.63-2.74-5.63,1.06-5.63,1.06c0,0-1.15-1.37-3.16-1.67s-2.62.91-3.53.76-4.18-6.26-10.57-6.16c-6.39.1-9.82,4.94-11.79,6.77-1.97,1.82-6.68,1.37-11.86.46-5.17-.91-7.91,3.65-11.41,11.56-3.5,7.91-5.35,6.31-7.91,4.87-5.97-3.38-12.01-1.52-13.99,3.8s3.19,12.04,5.78,13.93c2.59,1.89,2.59,5.18-.15,4.98s-4.41-5.07-12.17-.81c-7.76,4.26-3.04,11.04-.61,13.66,2.43,2.62,6.39,2.62,8.52,5.05s4.87,8.6,3.04,15.55c-1.82,6.95-7.45,8.21-12.32,4.92-4.87-3.29-2.59-9-7.76-11.47-5.17-2.47-10.64,4.37-10.49,10.38s10.64,12.31,12.62,14.18c1.98,1.87.76,3.39-1.98,2.93s-24.48-6.84-25.7,8.82c-1.22,15.66,5.17,22.51,12.62,22.05s13.08-6.79,16.42-7.65c3.35-.86-1.52,3.55-3.35,6.74-1.82,3.19-7.73,14.33-.76,18.1,6.97,3.77,8.52-.61,8.82-3.95.3-3.35,2.43-4.71,5.17-2.89,2.74,1.82,8.36,10.63,8.67,17.41.3,6.77-4.87,9.33-7,10.79s-6.39-.21-9.43-3.41c-3.04-3.19-7.6-1.25-8.21,3.41-.61,4.65,1.98,12.41,6.69,13.17s10.34-.46,6.08,4.87c-4.26,5.32-6.54,7.27-8.82,8.65-2.28,1.38-3.04,6.55.46,8.84,3.5,2.28,7.45,2.61,11.56-.9,4.11-3.51,4.56-7.04,5.63-9.15,1.06-2.11,2.43.02,2.13,3.36-.3,3.35-4.41,12.93-7.3,17.03-2.89,4.11.3,6.48,3.35,6.74s5.32-2.17,6.08-3.24c.76-1.06,1.82,3.04-.76,8.97-2.59,5.93-7.73,11.14-8.21,13.84-.81,4.51,1.94,11.93,5.31,13.65,3.36,1.71,3.51,4.6,1.69,6.88s-8.36,8.21-6.54,16.42c1.82,8.21,7.15,10.49,7.15,12.62s-3.65,7.3-5.02,11.56c-1.37,4.26-1.06,9.73,1.37,11.25s3.19,6.54,1.22,8.97c-1.98,2.43-7.3,7.3-2.28,14.29s-1.37,12.47-3.19,13.99-2.43,4.41-.91,9.73c1.52,5.32.15,7.6-3.5,9.88s-6.54,5.78-6.69,10.04-.61,6.69-3.19,8.06c-2.59,1.37-4.26,0-8.67,2.43s-4.71,7.91-7.3,10.34c-2.59,2.43-7,4.11-11.25,2.13-4.26-1.98-5.78-3.04-9.58-.46s-3.95,3.95-7.3,3.95-3.95-3.65-6.69-5.17c-2.74-1.52-6.84,1.06-6.84,1.06,0,0,5.49,4.76,20.38,5.78,20.07,1.37,46.4-15.81,58.39-52.77,7.1-21.87,3.8-48.36,3.65-64.17-.15-15.82.76-51.31,1.82-70.06,1.06-18.75,3.8-37.53,2.59-59.31-1.22-21.78-2.89-42.16-3.35-68.77s4.15-57.49,13.94-69.4c9.96-12.12,35.14-28.11,58.71-5.23,21.99,21.35,13.88,84.52,13.27,99.57-.61,15.05-6.02,62.65-6.02,62.65,0,0,2.52-3.35,2.22,6.69s-6.69,49.12-7.91,50.79c-1.22,1.67-4.03,3.32-21.1,1.73-17.07-1.58-23.36,4.01-23.36,4.01Z"/>
        <path class="st0" d="M286.14,292.74c-3.19-9.08-10.36-15.15-19.15-17.01-8.35-1.77-16.77,1.5-23.04,8.17-12.69,13.49-14.94,39.01-16.02,51.28l-.22,2.46c-.69,7.36-.72,42.59-.73,65.91,0,10.01-.01,17.92-.07,19.45-.19,4.8-.52,62.49,1.97,69.32.51,1.39,8.72-8.73,14.79-22.71,1.53-3.52,16.8-35.43,19.39-51.79,2.71-17.14-1.77-29.99-4.86-33.7-.52-.63-4.98-3.58-5.52-3.66-2.45-.34-8.33,5.68-9.63,8.58-.1.22.25,3.77,1.03,4.42,1.71,1.44,5.11,1.42,6.63,1.36.43-.02.78-.35.82-.78l.25-2.95c1.05-.75,2.74-1.59,3.68-2.04,1.02,2.02,2.15,5.08,3.05,8.83-.48.55-1.2.76-2.46.53-2.24-.4-2.68-1.24-3.37-.72-.68.52-1.52,2.12.4,2.97,1.92.84,3.88,1.22,5.09,1.36.5.06.88.12,1.22.2.2,1.2.36,2.44.49,3.73-.74.34-1.72.61-2.75.56-1.76-.08-2.04-.4-3.09-.4s-2.25,1.24-2.01,1.72c.25.48,3.17.64,5.21,1.32.94.31,2.03,1.21,2.94,1.95.02,1.49-.01,3.02-.11,4.56-.79.42-1.83.47-2.75.06-1.44-.64-2.72-1.28-3.73-.76s-1.96,2.48-1.4,2.64c.56.16,3.57.88,4.81,1.02.65.08,1.79.23,2.76.17-.25,1.92-.68,4.04-1.25,6.31-.57.23-1.38.11-2.43-.4-1.72-.84-1.8-1.6-2.76-1.64-.96-.04-2.4,1-2.56,1.88-.16.88.48,1.56,2.2,2.12,1.15.37,3.36.74,4.86.61-.63,2.21-1.36,4.51-2.17,6.86-.48.33-1.06.51-1.65.27-1.28-.52-2.12-.92-2.24-1.44-.12-.52-.16-1.08-.64-1-.48.08-2.2.76-2.56,1.64-.36.88,1.52,1.96,2.6,2.68.88.59,2.39.78,3.54.54-.73,2.02-1.51,4.06-2.3,6.07-.89.36-2.1.55-3.04.44-1.44-.16-1.72-.4-2.24-.84-.52-.44-.36-1.24-.76-1.24s-1.72,1.2-1.72,1.88,1.92,2.52,3.57,3.37c.88.45,1.94.27,2.75,0-.95,2.32-1.91,4.57-2.84,6.71-.36.14-.81.13-1.52-.06-1.48-.4-1.64-1.48-2.64-1.64-1-.16-2.28-.16-2.52.64-.24.8,1,2.34,2.44,2.23,1.05-.08,2.71.08,3.77-.08-1.57,3.59-3.05,6.82-4.24,9.39-1.47.08-2.66-.06-3.61-1.01-1.12-1.12-.96-2.88-1.84-3.17s-1.92.36-2.24,1.56c-.32,1.2.64,2.44,1.76,3.17.88.56,3.84.96,5.3.83-1.07,2.3-1.84,3.91-2.12,4.56-2.81,6.45-9.41,16.56-9.8,16.07-1.5-1.89-2.3-56.5-2.04-63.04.06-1.57.07-9.1.07-19.52,0-5.4,0-11.45.02-17.64.67-4,3.48-6.44,6.1-8.04s6.98-2.09,8.97-2.09,2.37,1.08,3.73,1.64c1.36.56,2.3-2.48,1.92-2.97-.38-.49-3.19-3.36-5.72-6.21-2.53-2.85-9.39-11.19-11.29-19.74-1.89-8.49-1.94-21.51-1.59-24.58,1.66-12.71,5.21-29.06,14.32-38.74,5.81-6.18,13.56-8.79,21.26-7.16,8.14,1.72,14.77,8.58,17.74,17.04,5.63,16.01,6.58,34.13,2.21,64.29-1.2,8.28-3.25,17.8-5.74,27.55-1.07-1.06-3.87-4.19-8.39-11.73-.86-1.75.68-2.33-.25-2.33-.51,0-1.15-.41-1.7-1-.33-.57-.66-1.16-1-1.78-.35-1.44,4.36-2.36,6.8-3.31,2.44-.95,3.93-4.14,3.6-4.49-.33-.36-2.08,2.13-4.47,3.42-2.39,1.28-6.7,2.08-7.48,1.54-.57-1.07-1.16-2.2-1.77-3.38-.57-1.13.85-1.35,2.36-1.79,1.52-.44,3.26-1.28,4.16-2.34.9-1.05-1.21-1.52-1.57-1.08-.36.44-3.62,1.7-5.03,1.87-.88.11-1.67-.48-2.32-1.44-.33-.68-.67-1.37-1.01-2.08-.73-2.06,2.75-2.37,4-2.42,1.26-.05,1.72-1.82,1.44-2.39-.28-.57-1-.15-3.53.74-2.49.88-4.33-1.11-4.87-2.25-.02-.04-.04-.08-.06-.12-.46-1.09.11-1.73.86-1.8.76-.07.91-1.38,1.86-1.49.95-.11,1.78.84,2.15.36s-1.02-3.35-3.5-2.04c-2.48,1.31-3.2-.11-3.58-.76s.52-2,.67-2.51c.15-.51,1.06.04,1.49,0,.44-.04.98-1.2,1.78-1.31s1.13.55,1.17-.25c.04-.8-1.27-1.49-1.84-1.75s-1.65,1.31-2.53,1.6c-.75.25-2.13.33-2.78-1.11-.09-.28-.17-.56-.26-.85-.42-2.22.86-1.94,2.02-2.41,1.17-.47,2.22-.25,3.31.22,1.09.47,1.57-1.09,1.53-1.93-.04-.84-.76-1.09-1.29-.87s-3.04,1.71-4.28,1.67c-1.23-.04-2.59-1.28-3.19-3.64-.07-.29-.13-.58-.19-.86-.33-1.79,0-2.45.58-2.96.66-.58,4.26.04,5.2-.4.94-.44.66-1.31,0-1.31s-3.93-.62-5.17-1.09c-.92-.35-1.66-.93-1.94-1.8-.04-.34-.08-.68-.12-1.02.1-1.45,2.58-2.31,3.56-2.6.98-.29,4.26,1.24,4.81,1.24s1.53-.87.95-1.06c-.58-.18-1.13-1.31-1.31-2.15-.18-.84-2.33-.47-3.86.33-1.53.8-3.64.11-3.93-.87-.29-.98-.36-1.31.22-2.18.58-.87,1.53-1.06,2.48-1.2.95-.15,3.2-.07,3.86-.47.66-.4.8-1.93.07-1.64-.73.29-3.53.51-5.39,0-1.62-.45-1.69-1.92-1.61-2.95.02-.14.03-.29.05-.43.11-.98.77-1.5,1.71-1.79.95-.29,2.11.33,3.53,1.13,1.42.8,3.28.22,3.99-.36s1.69-1.71,1.26-1.82-1.97-.15-3.5.04c-1.53.18-4.48.25-5.21,0-.71-.25-1-1.64-.79-2.61.01-.05.03-.11.04-.16.26-.9.96-1.33,2.86-1.78,1.97-.47,3.06.44,4.33,1.13,1.27.69,2.15.18,2.77-.36.62-.55,1.24-.87.87-1.53-.36-.66-2.59-.87-3.86-.73-1.27.15-2.88.84-3.42.4-.44-.35-1.09-1.53-1.29-2.77.47-.77.97-1.41,1.48-1.91,2.51-2.44,4.51-3.01,6.49-2.61,2.8.56,4.58,3.84,4.61,3.85.42.22,2.35-1.47,2.52-1.9.07-.17-4.04-5.82-6.35-6.13-2.48-.33-6.17,1.78-9,4.84-8,8.68-11.56,30.96,2.97,61.94,12.92,27.54,21.02,34.24,21.44,38.53-3.38,12.42-7.33,24.85-11.05,35.27-1.94,5.44-3.77,10.57-5.26,15.04-6.91,20.7-18.28,43.33-21.13,48.97-.21.42,3.14-.1,3.58-.26.27-.1,12.38-27.31,19.33-48.11,1.49-4.46,3.32-9.58,5.25-15.01,7.35-20.63,16.21-46.97,18.9-68.78,3.76-30.55,3.22-51.71-2.51-68.01ZM250.48,388.83c-.74-.66-1.46-1.52-1.33-1.76.89-1.61,2.28-1.22,4.28-.7.25.07.57.36.94.86-.78.83-2.5,1.35-3.89,1.61ZM242.35,372.11c.14.63-1.95,2.34-6,3.56-3.01.91-6.07,3.64-7.45,4.99.04-12.56.12-25.12.31-33.62,4.58,18.87,13,24.44,13.14,25.07Z"/>
        <g>
          <path class="st0" d="M206.6,245.27c-1.95.43-3.66,1.43-5.1,2.74-5.5-4.18-6.73-9.16-6.96-10.49,1.39-.78,2.53-1.94,3.21-3.61,2.42-7-2.69-14.93-9.88-16.1-5.47-1.5-10.91,2.68-12.53,7.66-2.7,6.58-.16,14.03,4.18,19.31.43.5.89.97,1.37,1.43-12.13-3.64-23.51-9.71-34.41-16.1.36-2.04.16-4.15-.81-6.09-2.33-3.51-5.82-5.12-9.51-5.29,1.69-3.51,1.81-7.51,3.51-11.05,1.28-3.53,3.65-6.28,5.58-9.39,1.89,14.09,9.92,27.28,22.38,34.36-11.64-8.08-18.33-21.22-20.45-34.96-1.72-9.25-1.37-19.07,3.3-27.34,1.03-.2,2.17.02,3.21.18,4.36-.04,8.11,1.93,11.97,3.84,3.97,1.78,5.45-4.13,3.73-6.8-1.81-3.16-8.42-5.77-12.75-5.09,12.3-10.85,27.9.2,28.08,17.79-.54,13.18-30.96,13.2-25.23-2.21l2.04-4.97s-3.63,3.83-3.63,3.83c-10.92,13.13-1.88,33.6,7.98,44.71-7.18-9.42-14.42-27.39-9.07-39.3.15,2.49,1.25,4.5,2.96,6.01-1,5.03.56,10.19,1.81,15.08,1.8,5.03,3.36,11.06,8.25,13.95-2-4.94-4.96-9.31-6.34-14.52-1.57-4.52-1.56-9.33-2.92-13.87,1.7,1.24,3.85,2.08,6.19,2.52-.89,3.82.6,7.74,1.45,11.48,1.37,3.89,2.1,8.55,5.65,11.09l-.55-3.15c-2.19-4.54-3.66-9.43-4.55-14.39-.21-1.74-.57-3.34-1.28-4.9,8.41,1.26,18.79-2.51,19.22-11.27.21-7.36-2.91-14.63-8.26-19.66-4.13-3.67-8.4-4.94-12.47-4.55,2.14-1.13,4.19-2.44,6.04-4.04,10.27-8.36,12.57-21.95,7.68-33.91-2.43-5.63-7.62-11.46-14.37-11.15-6.09.44-9.83,6.45-8.16,12.21.76,2.81,3.73,4.29,6.51,4.02,3.44,9.39-4.79,27.83-10.33,39.76-3.57,3.79-6.31,8.7-7.65,13.63-2.18,6.65-1.59,13.79-.59,20.63-3.82,1.59-5.59,6.08-7.28,9.61-1.35,3.76-3.04,7.78-2.35,11.79-5.8,0-11.95,3.46-14.85,8.6-2.43-1.13-4.94-1.8-7.57-2.32-5.72-1.34-11.35-3.07-16.81-5.23-1.36-.54-2.72-1.1-4.04-1.72l-3.36-.8c-.23-2.11-.77-4.38-1.78-6.74-1.04-2.42-2.58-4.19-4.57-5.3-1.6-11.16,6.73-16.17,10.26-17.76-.66,3.93-2.55,7.82-3.57,9.92-1.34,2.75-.45,7,1.98,9.49,1.32,1.35,4.2,3.3,8.72,1.24,4.97-2.27,7.02-4.52,7.86-5.99,1.52,1.23,4.27,3.11,6.51,2.65.78-.16,1.85-.67,2.51-2.2,1.29-3,.82-5.02.2-6.18-.83-1.56-2.48-2.64-4.64-3.04l-.72-.13c-2.62-.46-2.83-.5-2.83-5.44,0-3.62-1.95-9.96-6.2-14.43,1.42-3.22,1.21-6.84.8-10.35l3.19-1.54c1.1-.87,2.25-1.68,3.39-2.49,4.61-3.23,9.43-6.17,14.38-8.86,2.6-1.28,4.99-2.72,7.08-4.77-5.75.87-10.48,4.52-15.45,7.3-4.38,2.99-9.51,5.43-12.67,9.79-.08-.64-.16-1.28-.23-1.92-.18-.76-.35-1.55-.53-2.35,10.77-11.05,28.13-31.5,43.16-32.05,4.48.02,8.08,3.91,8.51,8.23.73,4.76-3.18,7.92-7.56,8.76-6.6,1.56-10.18-3.21-6.98-8.97,1.2-1.67,4.35-.82,4.83,1.17.32,1.07.19,2.31-.17,3.44,1.28-2.26,1.11-5.53-1.78-6.43-2.94-1.32-5.38,1.7-5.86,4.35-.65,2.71.31,5.8,2.7,7.33,3.42,2.28,7.79,1.39,11.28-.19,6.84-2.79,7.07-11.89,2.22-16.65-13.01-12.65-42.25,17.79-50.47,30.49-.47-2.04-1.04-4.1-2-5.9,4.84-5.66,9.65-11.33,14.63-16.85,5.06-6.04,10.1-12.09,15.89-17.37,16.21-15.6,36.1-35.37,38.08-59.02.67-11.49-3.68-26.22-14.89-31.39-7.62-3.45-19.03,1.5-18.83,10.59.03,3.73,2.83,6.64,6.14,7.86-.01.02-.03.03-.04.05-1.65,2.29-4.36,8.98-.97,10.64,1.78.64,3.84.24,5.11-.96.05.84.24,1.68.57,2.5.84,1.39,2.48,1.24,3.72.99,1.08-.46,1.77-1.5,2.71-1.89-.91.51-2.14.27-3.07.26-.89.24-1.84.15-1.92-.19-.57-1.43-.45-3.75.5-4.97,1.82-2.09,5.14-.47,5,2.27.26.83.49,2.12-.51,2.63,2.49-1.22,2.76-3.86.94-6.02-.29-.33-.64-.59-1.01-.81,1.68-1.26,2.59-3.51,2.27-5.58-.12-1.31-.63-2.78-1.97-3.24-2.36-.91-5.41-.2-6.47,2.28-.13.62-.04,1.18.11,1.71-1.04-1.87-3.48-1.62-4.86.2-3.01-1.45-5.42-4.3-5.19-7.74.49-7.67,10.54-11.56,17.02-8.74,3.46,1.33,6.08,4.26,8.19,7.42,8.65,13.28,6.34,30.83-1.75,43.85-7.8,13.6-18.76,25.11-30.25,35.84-2.1,1.95-4.09,3.99-6.05,6.06,0-.7-.18-1.38-.52-2.08-.91-3.09-4.26-7.73-7.72-6.67,1.13-5.37,1.5-10.55.8-15.04-5.13-30.21-43.78-10.61-28.14,13.96-.28.57-.47,1.19-.5,1.87.11,3.86,2.42,6.22,4.78,6.4-.5.69-.95,1.48-.99,2.58.15,2.77,2.29,4.44,4.69,5.02-1.08-1.42-2.84-3.41-3.03-5.02.18-1.82,2.29-3.26,3.45-4.81.78-.87,2.3-1.93,3.53-1.98.33.04.34.05.49.37.23.67.09,1.76-.23,2.65-.1.99-.29,2.08-1.18,2.76.59.01,1.17-.36,1.6-.77,1.83-1.54,2.13-4.84.71-6.15.3-.11.59-.24.88-.43.69-.73,1.1-1.69,1.26-2.62.95-4.18-3.93-8.96-7.21-4.67-.56.74-.87,1.66-.88,2.56-.55-.38-1.19-.64-1.89-.71-2.21-.23-4.45.95-5.44,2.88-4.1-7.99-3.98-17.16,3.41-23.2,4.54-4.23,12.18-5.58,17.25-1.57,4.95,4.23,6.01,11.45,5.9,17.7-1.22,13.15-6.67,25.99-14.01,36.89-4.96,7.55-12.44,12.6-19.09,18.54-6.8,5.97-13.31,12.36-18.55,19.8-3.84,5.63-7.11,11.9-8.42,18.66-1.89,8.8-.59,19.39,5.1,26.59-3.39,2.52-6.35,5.9-7.46,10.1-1.09,3.71-.05,8.34,3.26,10.51-8.18,4.91-7.57,17.52-.5,23.46,1.97,1.47,4.33,2.18,6.73,2.18-2.63,3.77-2.5,9.15,1.78,10.8-2,1.72-2.12,3.66.27,5.15-2.69,1.36-5.28,3.1-6.34,6.06-.5,1.73-.08,3.67,1.12,4.75-1.94,1-3.82,2.13-5.57,3.59-1.27,1.03-2.62,2.7-2.44,4.47-.04,1.23.69,2.35,1.72,3.02-3.42,2.46-7.01,4.96-8.62,9-.36,2.63,1.08,5.39,2.45,7.7-3.07,2.33-8.11,5.91-7.22,9.85.47,1.68,1.72,2.95,3.19,3.75-3.08,2.8-6.39,6.09-6.06,10.53.55,3.02,2.52,5.57,4.99,7.29-2.51,2.68-5.09,5.77-5.35,9.54.63-3.85,3.69-6.74,6.44-9.25,0,0,.46-.4.46-.4-8.27-6.31-4.56-11.64,1.95-17.23,0,0,.85-.7,1.23-1.02-.22.88-.44,1.76-.65,2.64-2.93,14.02-2.77,28.44-2.12,42.65.58,5.87.41,11.97-5.67,14.76-3.19,1.56-7.63,1.75-10.42-.56-2.64-2.42-3.31-7.1-1.38-10.14,2.81-4.12,7.58-2.97,7.16,2.34.69-3.63-1.71-6.77-5.51-5-4.2,1.97-4.99,7.42-3.47,11.4.94,2.72,3.16,4.22,5.72,4.82-.77,1.23-1.3,2.65-1.43,4.16-.21,6.43,3.49,8.22,7.43,6.3-.41,1-.75,2.02-.91,3.13-.1.92-.14,2.12.73,3.16,1.8,1.63,3.83,1.3,5.69.27-.11.25-.26.48-.36.73-1.61,3.32-1.38,7.95,3.02,8.19,1.01,4.53,2.1,9.03,3.12,13.55,5.52,19.36,11.86,39.52,15.89,59.17.71,4.64.85,10.07-2.82,13.47-2.55,2.18-6.69,2.63-9.64.94-2.71-1.58-4.02-6.32-.79-8.1.96-.54,2.34-.92,3.14-.18.82.79.91,2.24.81,3.47.94-3.36-.83-5.74-4.41-4.24-2.86,1.08-3.87,4.83-2.66,7.49,1.73,3.88,6.24,5.16,10.24,4.32-.84,1.41-1.53,2.92-1.98,4.56-1.75,5.39,2.3,9.95,6.95,6.86-.48,2.29-.15,4.53,1.92,6.19,2.29,1.52,4.48.99,6.39-.38-.45,1.45-.72,2.97-.7,4.61.05,1.84,1.57,3.92,3.6,3.65,1.2-.34,2.11-1.08,2.85-2-.35,3.35-.4,6.74,1.15,9.78,2.05,2.51,4.1,1.35,5.69-.69.39,3.48.78,6.95,1.17,10.42,1.63,16.73-.33,33.49-4.42,49.74-2.48,10.68-4.91,22.04-12.58,30.22-11.82,12.76-33.59,7.5-43.21-5.47,6.32,9.5,17.8,15.36,29.31,14.5,12.15-.88,20.32-11.8,23.99-22.45,6.72-21.52,11.08-44.13,8.9-66.72-.45-4.35-.95-8.67-1.46-13,.45-.89.81-1.75,1.04-2.41-.39.62-.76,1.17-1.12,1.69-.77-6.59-1.58-13.16-2.45-19.76-1.5-11.14-3.27-22.27-5.97-33.23-5.57-21.88-14.71-42.46-23.29-63.25,3.74,10.59,7.39,21.2,10.93,31.85,3.78,10.57,7.86,21.02,10.43,31.88,4.3,17.95,6.53,36.38,8.59,54.75-3.47,3.82-5.15,1.46-4.8-6.45.16-4.02,1.44-10.87,2.08-14.91-1.5,3.23-3.66,10.32-6.11,12.86-.48.44-.91.83-1.47.57-1.92-1.68-.43-4.88.3-7.12.73-1.79,1.62-3.56,2.6-5.22h0s.02-.04.03-.05c0,0-1.73-.99-1.73-.99,0,.02-.02.04-.03.05h0c-1.01,1.81-2.31,3.6-3.81,4.96-3.38,3.34-7.32.49-5.69-4.02.39-1.23.98-2.45,1.66-3.61.47-.66.92-1.34,1.33-2.04,0,0-1.66-1.09-1.66-1.09-.44.62-.91,1.32-1.36,2.07-.72.99-1.51,1.93-2.37,2.71-1.29,1.15-2.84,1.95-4.27.72-2.6-2.23-1.37-6.68-.15-9.87,1.6-.38,3.1-1.09,4.29-2.13,2.13-1.86,3.27-4.59,3.68-7.33.95-7.89-1.94-15.52-3.7-23-3.71-14.36-8.23-30.07-12.45-44.38-1.6-4.33-3.16-8.67-4.81-12.98.13,0,.25.02.39.01,1.45-.21,2.67-.87,3.73-1.74-.3,2.03.17,3.83,2.56,4.23,3.72-.2,5.42-4.48,6.74-7.34-1.56,1.97-3.8,5.62-6.51,5.49-1.14-.42-.9-1.66-.69-2.76.34-1.42.96-2.89,1.66-4.21,0,0-1.73-.98-1.73-.98-1.42,2.18-3.29,4.88-5.93,5.32-3.19.18-2.58-3.42-1.62-5.47.73-1.77,1.78-3.51,2.89-5.09,0,0-1.55-1.25-1.55-1.25-1.69,1.66-3.89,4-6.41,3.63-2.55-1.04.96-6.82,1.92-8.44,0,0-1.58-1.21-1.58-1.21-1.45,1.45-3.4,3.28-5.5,3.07-3.35-1.37-3.79-5.97-2.62-9.19,2.87.62,6.15.13,8.61-1.1,6.87-3.2,7.51-9.99,6.79-16.64-.65-14.01-.8-28.39,2.08-42.14,3.58-15.43,9.22-30.56,17.12-44.35.99-.45,1.95-.89,2.86-1.35,0,0-1.18.13-2.22.24,3.95-6.76,8.45-13.19,13.54-19.15,5-6.31,10.73-12.04,17.01-17.19-6.12,4.08-11.73,8.93-16.89,14.25-2.07-.28-4.35-.13-5.93-1.25-3.02-2.82-2.78-4.95-.19-8.23.87-.94,1.68-1.89,2.4-2.91,1.49-1.37,2.75-2.91,3.6-4.47-4.41,2.82-11.23,9.34-16.47,5.93-2.99-2.2-4.99-6.93-2.92-10.39,3.49-5.44,10.47-7.18,15.93-10.18-1.22.01-2.54.17-3.88.45-.18,0-.35,0-.57-.01-3-.47-7.38.2-8.59-3.29-.82-2.64.67-5.08,2.33-7.27,1.63-2.7,4.38-6.21,4.56-9.6,1.54,2.43,3.36,4.74,5.53,6.76,8.4,7.79,27.5,12.77,53.78,14.02,21.53,1.02,44.53,3.59,59.56,5.43.28.06.55.12.82.18.01,0,.02,0,.03,0h0s.02,0,.03,0c0,0,.01-.07.01-.08,3.7.45,6.88.86,9.4,1.18l1.06.14c-.43.75-.81,1.52-1.1,2.31-1.27,2.99-1.2,6.26-.61,9.36.53-2.19,1.32-4.16,1.75-6.27.23-.7.46-1.71.72-2.39,4.31-11.64,19.03-8.75,23.81,1.03.07-8.16-9.88-11.87-16.8-10.15ZM159.26,164.34c3.74.86,11.05,3.04,8.2,8.13-.26.34-.09.19-.28.25-.18,0-.51-.07-.85-.19-3.88-2.01-8.06-3.99-12.62-3.99-.78.12-1.7.29-2.53.6.24-.38.48-.76.73-1.14.47-.71.95-1.37,1.43-2,.53-.62,1.06-1.25,1.6-1.88.27-.29.54-.58.81-.85,1.2.13,2.37.62,3.49,1.06ZM159.33,113.36c.9-2.35,3.66-4.13,6.14-4.3,5.77-.19,10.21,4.96,12.39,9.95,4.66,10.92,1.97,24.1-6.56,32.37-1.9,1.9-4.08,3.52-6.4,4.95-1.72.29-3.39.87-4.99,1.69,1.21-1.57,2.36-3.13,3.42-4.69,4.98-7.41,10.19-15.68,10.08-24.95.05-5.5-1.94-11.08-6.96-14.08l.17,2.21c.13,1.68-.32,3.69-1.59,4.39-1.24.74-3.47.53-4.66-.3-2.04-1.37-1.77-4.97-1.05-7.23ZM163.74,123.29c.81-.09,1.61-.3,2.33-.7,1.46-.9,2.16-2.36,2.43-3.93,2.14,2.63,2.93,6.36,2.94,9.72.07,8.89-4.95,16.64-9.73,23.8-1.03,1.48-2.11,2.92-3.2,4.36.39-.89.79-1.78,1.16-2.69,3.22-7.88,8.03-22.28,4.08-30.57ZM146.77,46.23c.08.24.14.47.17.69-.26-1.04.38-2.16.91-2.76.3-.73.95-1.25,1.78-1.5,1-.26,2.64-.27,3.18.66.83,2.11.2,4.75-1.91,5.76-.8.4-1.46.47-1.98-.04-.69-.3-1.79-1.08-1.98-2.12.29.92.04,2.11.76,3.2-.34.23-.66.49-.93.82-.58.84-.94,1.75-1.11,2.68-.39.27-.79.47-1.2.59-.98.67-2.35.83-3.48.46-.13-.03-.24-.14-.35-.53-.62-2.97,2.08-11.28,6.13-7.91ZM93.21,111c1,.11,1.72.84,2.26,1.62.77.71,1.37,1.71,1.67,2.91.51-1.36.22-2.92-.58-4.14.08-.36.2-.7.33-1.02.06-1.26.83-2.68,2.1-2.86,2.75-.02,3.7,4.39,1.93,6.16-.14.36-.38.71-.68,1.05-.6-.11-1.34,0-2.24.43-.33.14-.61.34-.9.52,0-.05.02-.08.03-.13-.07.08-.14.15-.2.23-.87.56-1.62,1.27-2.33,2.05-.02.01-.05.03-.07.05-.77.72-1.71,1.3-2.44,1.11-1.81-.45-3.01-2.96-2.98-4.78,0-1.81,2.24-3.44,4.1-3.18ZM177.19,226.2c1.57-4.38,5.61-7.6,10.28-6.42,6.2.97,10.18,7.61,8.48,13.54-1.42,4.74-7.47,5.24-11.85,5.24.87.15,1.81.27,2.78.33.07,1,.59,5.92,3.42,9.41-.71-.09-1.45-.18-2.21-.27-1.26-.34-2.49-.82-3.61-1.5-6.21-4.24-10.17-13.03-7.29-20.32ZM103.96,224.59c5.37,1.43,10.79,3.54,16.4,3.21-.54,1.06-.94,2.19-1.18,3.36-2.33-.98-4.71-1.53-7.22-1.93-5.46-1.07-10.84-2.59-16.06-4.51-1.31-.48-2.6-.99-3.87-1.53l-3.23-.64c.18-1.41.23-2.96.11-4.61,4.24,3.55,9.94,4.78,15.06,6.64ZM80.38,204.35c-1.23-.35-2.49-.49-3.73-.47-.25-1.69-.6-5.93,1.39-10.26,3.12-6.78,11.89-9.84,14.8-10.7.12.74.17,1.5.15,2.28-2.84,1.13-13.8,6.37-12.62,19.15ZM74.65,204.02c-2.14.29-4.04.92-5.27,1.41.1-3.62.68-12.73,4.01-16.71,3.6-4.3,12.95-9.6,17.15-8.95,1.19.18,1.58.78,1.78,1.23-3.18.91-12.56,4.17-16.07,11.79-2.16,4.69-1.88,9.2-1.58,11.23ZM115.04,114.51c.72.46,1.42.78,2.3,1.05,2.09.93,3.02,3.13,3.83,5.19.25,1,.67,1.79,1.32,2.5-8.15,8.81-15.23,18.54-22.12,28.36-.63-1.16-1.45-2.18-2.49-3.02,7.62-8.66,14.36-21.81,17.18-34.08ZM97.43,149.05c1.15,3.98,3.12,7.59,3.67,11.77.84,3.92.15,7.88.69,11.79-.46-.43-.91-.87-1.41-1.25-1.17-.88-2.41-1.57-3.71-2.1.7-1.15,1.02-2.43.97-3.83.16-3.28-.17-6.61-1.23-9.75-.37-1.38-1.07-2.6-2.22-3.39,1.09-.99,2.18-2.07,3.24-3.25ZM45.67,339.27c-2.09-.58-4.76-1.56-5.07-3.97.69-3.33,4.68-5.77,7.25-7.82l.81-.56s-.56-.83-.56-.83c-1.18-1.87-2.76-4.76-2.64-6.9,1.74-3.88,6.04-6.49,9.4-8.99,0,0,.58-.39,1.18-.79-4.39,9.6-7.83,19.64-10.37,29.87ZM56.47,308.46c-1.21-.02-2.94,0-3.52-.6-.71-.62-.66-1.96-.1-2.73,2.01-2.4,5.02-4.07,8.09-5.53-1.59,2.9-3.08,5.86-4.47,8.86ZM60.93,297.46c-.93.07-1.63-.42-1.75-1.44-.37-3.89,4.11-5.79,7.16-7.29,0,0,1-.43,1.7-.74-2.06,3.03-3.99,6.14-5.81,9.32-.44.05-1.3.14-1.3.14ZM65.82,245.56c-7.28,3.23-13.2,9.87-7.77,17.49,2.89,4.44,7.31,4.66,11.39,2.91-.87,1.42-1.48,3.01-1.2,4.78.28,1.63,1.24,2.74,2.19,3.82,1.61,1.87,4.24,2.43,6.52,1.8-.08.09-.17.17-.25.26-2.99,3.51-5.79,7.17-8.39,10.97-1.42-.52-3.98-1.17-4.49-2.35-.01-.15.43-.72.93-1.09,1.08-.94,3.93-2.22,5.2-2.98,0,0-4.03,0-4.03,0-3.83.07-5.16-4.02-3.35-7.04.96-2.01,3.46-3.82,5.03-5.35,0,0-3.76.86-3.76.86-9.23,2.35-14.72-9.45-11.63-16.94,1.44-3.7,5.25-5.5,8.75-6.71,0,0-3.02-.81-3.02-.81-9.01-3.19-4.1-14.92,1.63-19.56,1.24,1.56,2.69,2.96,4.35,4.15-1.35,2.1-2.84,4.11-3.92,6.48-1.97,5.15,1.46,8.77,5.8,9.31ZM66.51,224.64c-.59,1.88-1.53,3.52-2.55,5.1-10.27-8.9-9.95-24.74-5.7-36.62,6.67-16.8,21.34-28.4,34.77-39.77.15-.13.31-.29.46-.42.2,1.19.53,2.24,1.05,3.4,1.23,3.61,1.37,7.53.94,11.3.1.43.2.87.31,1.31-3.38-1.13-7.16-1.13-11.32.06-17.78,5.11-23.3,23.43-23.09,31,.14,5.19,1.75,14.27,6.34,22.27-.28.83-.78,1.59-1.2,2.36ZM63.36,199.96c-.22-7.89,5.91-24.5,21.65-29.03,5.51-1.58,10.28-.91,14.17,2.02,5.23,3.94,7.59,11.03,7.59,14.81,0,6,.85,6.76,4.48,7.4l.7.13c1.1.21,2.56.72,3.25,2.02.6,1.12.5,2.66-.27,4.46-.34.8-.78.97-1.07,1.03-1.57.32-4.42-1.73-5.83-3.1l-1.41-1.32-.27,1.94s-.46,2.84-7.28,5.96c-3.24,1.48-5.3.37-6.47-.82-2.02-2.07-2.47-5.47-1.61-7.23,1.72-3.53,5.73-11.78,3.19-17.95-.57-1.37-1.72-2.23-3.34-2.48-5.31-.82-15.3,5.25-18.97,9.64-4.66,5.57-4.5,18.97-4.49,19.54l.03,1.6,1.42-.73c.06-.03,6.52-3.27,11.57-1.44,2.17.79,3.8,2.43,4.85,4.88,4.31,10.06-.84,18.59-.89,18.68l-.48.77.72.55c.28.21,7.16,5.28,27.64,7.96l.26-1.97c-16.28-2.13-23.77-5.83-25.97-7.12.63-1.24,1.7-3.74,2.2-7.03,4.1,3.39,9.62,4.45,14.59,6.09,5.16,1.23,10.43,3.11,15.77,2.45,0,0,0,0,0,0-.77,3.93.9,8.43,4.13,10.58-23.33-1.57-40.18-6.21-47.73-13.21-9.17-8.5-11.94-22.29-12.12-29.09ZM124.78,242.35c-2.26-1.43-3.64-3.91-3.71-6.7-.6-3.75.6-7.38,3.44-10.11,3.43-3.6,8.7-5.73,13.61-4.49,5.27,1.12,8.11,5.79,5.73,10.79-.95,2.23-2.72,4.3-4.8,5.14l-3.19,1.28s3.35.64,3.35.64c6.24.92,11.91,3.42,17.73,5.73-9.38-.87-19.3-1.64-28.94-2.09-1.09-.05-2.16-.12-3.22-.18ZM164.68,245.38c-7.57-2.55-14.75-6.26-22.6-7.97,2.22-1.76,3.83-4.35,4.37-7.12,5.87,4.82,12.19,9.17,19.16,12.22,3.24,1.48,6.51,2.83,9.84,4.02-3.41-.38-7.03-.77-10.77-1.15ZM198.02,249.27c-1.45-.19-3.14-.4-5.01-.64-3.59-2.75-4.33-8.39-4.46-9.72,1.51-.03,3.04-.23,4.42-.71.4,1.96,1.93,6.81,7.36,11-.09.11-.2.21-.29.32l-2.04-.26Z"/>
          <path class="st0" d="M90.38,255.57c.94-.99,1.5-2.32,1.19-3.76-.59-1.81-1.94-3.55-3.56-4.37-3.31-.66-6.26,2.42-6.97,5.4-.29,1.68,0,3.62,1.43,4.73.9.55,1.92.56,2.85.59,6.68.23,12.63-3.47,18.35-6.42,1.73-1.3,3.42-2.6,5.17-3.87-4.22,1-7.96,3.08-11.75,5.04-2.16,1.05-4.4,2.04-6.71,2.65ZM83.97,256.05c-.34-.11-.43-.07-.59-.39-1.4-2.43.68-5.39,3.05-6.24.44-.14.79-.19,1.01-.05,2.32,1.79,3.09,4.46,1.44,6.54-1.61.29-3.25.38-4.92.14Z"/>
        </g>
      </g>
    </g>
    <g>
      <path class="st0" d="M125.1,319.5c-.67,1.25-1.83,4.1-1.35,5.01.48.92,1.11,2.27.39,2.89-.72.63-.43,1.4.24,1.74s.39,2.12,0,2.22c-.39.1-1.3,5.06,0,9.02,1.3,3.95,4.19,8.63,8.1,8.34-3.66-2.02-6.13-4.09-6.57-12.36-.44-8.27,2.5-14.87,4.44-19.13,1.94-4.27,11.25-10.21,12.25-11.27-2.75,1.54-9.11,6.27-10.65,7.28-1.54,1.01-6.17,5.01-6.85,6.27Z"/>
      <path class="st0" d="M146.71,345.18c1.64-1.1,2.86-2.44,4.51-1.25,1.65,1.19,2.97,4.45,1.25,6.22s-1.93,1.51-2.81,2.63-.79,1.91-2.42.53c-1.63-1.39-4.37-5.55-.52-8.12Z"/>
      <g>
        <path class="st0" d="M112.56,392.64s-.02.03-.03.05c.3,10.82.64,21.06.94,29.37.44-.94,1.38-1.91,2.55-2.83,0-.31-.01-.62-.02-.93-.3-1.72-.18-6.41-.41-9.24-.29-3.68-.22-8.14-.45-12.3-.21-3.88-.37-7.16-.09-8.14-.83,1.25-1.6,2.62-2.5,4.03Z"/>
        <path class="st0" d="M115.6,424.35c-.67,1.33-1.59.11-2.02-.18,0,0-.01,0-.02,0,.3,8.23.54,14.26.62,16.62.59-.53,1.36-1.15,2.23-1.8,0,0,0,0,0,0-.27.13-.1-3.6-.38-7.13-.24-2.87-.34-6.34-.32-7.7-.03.06-.07.14-.1.2Z"/>
        <path class="st0" d="M112.44,389.2c.09-.24.17-.45.27-.7.87-2.36,1.89-3.72,2.84-4.52-.04-7.28,0-13.23.15-16.18.12-2.28-.66-8.13-1.21-14.75-1.35-2.42-2.18-4.59-2.64-6.55-.06,12.89.21,28.18.59,42.71Z"/>
        <path class="st0" d="M190.8,335.24c-.39-12.74,1.22-63.64-36.49-63.25-37.71.39-40.1,40.65-41.16,46.81-.62,3.64-.99,9.84-1.17,17.57.15-.85.3-1.67.38-2.45.47-4.46,1.67-6.25,2.37-7.13.03-.37.06-.73.1-1.1-.32-.23-.77-.35-.77-.35,0,0,1.3-9.21,4.82-23.62,1.19-4.87,2.95-8.59,4.76-11.42,2.39-4.33,5.32-7.67,8.88-9.53,19.98-10.43,30.89-5.49,36.86-1.82,5.97,3.67,19.1,13.96,18.99,59.79-.04,20.15-.89,44.67-2.38,68.97.87,3.62,1.16,6.46,1.17,8.75,0-.02,0-.04,0-.05,1.31-13.67,4.03-68.44,3.64-81.18Z"/>
        <path class="st0" d="M184.67,426.87c-1.83,24.1-4.28,46.74-7.16,63.18-.15.88-3.58,2.92-3.58,2.92.92.34.92,2.31-.1,3.52,0,0,2.8,1.4,3.47.65.66-.75,2.76-3.61,3.32-4.32.51-.64,4.31-50.58,6.03-70.73-.15.9-.9,2.64-1.98,4.79Z"/>
      </g>
      <g>
        <path class="st0" d="M218.96,265.41c-2.22-8.61-9.02-9.16-11.8-7.36-2.78,1.8-4.03,6.52-5,9.3-.97,2.78-3.05,5.13-4.44,3.61-5.34-5.81-5.72-9.54-10.94-14.59-12.33-11.92-56.32-7.47-80.68,7.1-19.77,11.82-37.3,34.83-49.42,64.69-17.64,43.46,1.25,92.04,1.25,92.04h1.25c1.25,0-.56,3.33-.56,3.33,0,0,14.88,43.03,24.07,86.24,11.84,55.72,6.89,87.28,3.83,103.25-3.05,15.96-8.19,23.88-13.33,29.29-5.14,5.41-11.38,8.61-16.8,9.99-5.41,1.39-14.99.83-19.85-.42-4.86-1.25-14.02-10.55-14.02-10.55v6.8l2.78,7.5s2.22-3.05,4.03-2.08c1.8.97,4.03,7.5,8.05,7.22,4.47-.31,2.78-3.35,8.59-4.01,1.9-.22,3.83-.07,5.7.31,8.99,1.83,6.46,2.14,9.59.92,2.5-.97,6.25-10.13,10.97-10.55,4.72-.42,3.75-1.67,7.36-5,3.61-3.33,2.36-5.14,2.5-7.08.14-1.94,3.19-6.25,6.25-8.05,3.05-1.8,4.72-5.41,3.61-7.64s-1.39-4.58-.69-7.77c.69-3.19,5-8.61,5.14-11.24.14-2.64-1.53-3.75-2.92-7.08-1.39-3.33.28-9.16,2.78-10.83,2.5-1.67,2.92-3.75,2.78-6.66-.14-2.92-1.94-3.75-3.61-7.77-1.67-4.03-1.25-6.94.28-10.13,1.53-3.19,2.92-5.41,2.22-9.44-.69-4.03-2.92-8.05-4.72-14.3-1.8-6.25,8.19-18.88,8.19-18.88,0,0-3.61-.83-7.22-4.16-3.61-3.33-.83-11.11.69-16.66,1.53-5.55,4.44-6.52,6.25-7.56,1.8-1.04,1.25-2.01,1.25-2.01,0,0-1.53,1.25-4.72,1.94s-6.11-3.89-7.64-6.39c-1.53-2.5,3.33-10.69,3.75-11.1.42-.42-.42-1.81-1.39-1.25-.97.56-5.55,1.8-7.63.97-2.08-.83-5.28-3.75-6.52-5.14-1.25-1.39,0-4.3.56-5.41.56-1.11.69-5.69,1.8-7.08,1.11-1.39,6.11-3.33,7.64-3.61s.42-2.36.42-2.36c0,0-7.77-.83-10.13-2.08-2.36-1.25-3.05-6.94-3.61-9.44-.56-2.5-.42-8.61-.14-8.97s2.36-1.03,4.03-1.72c1.67-.69,2.78-3.75,2.78-3.75,0,0,1.11-.28,2.78-.14,1.67.14,3.19,4.03,5.41,5.28,2.22,1.25,6.94-1.25,8.47-3.33,1.53-2.08,1.11-2.64.69-3.47s.56-3.33.83-4.72c.28-1.39-3.05-5-6.11-5s-4.72,5.14-9.02,5-5.97-1.67-8.88-7.64c-2.38-4.87-1.61-10.67-1.25-12.64.05-.3-.23-.53-.51-.42-1.74.68-6.6,2.42-9.96,2.09-4.16-.42-7.58-1.67-10.82-13.08-1.98-6.96,1.77-22.09,3-23.95,1.78-2.68,5.66-2.84,8.71-2.94,2.19-.07,3.7-1.11,4.91-1.92.71-.47.89-1.43.41-2.13-1.42-2.08-3.88-7.12-1.3-15.39,1.46-4.68,5.97-7.36,8.19-8.19s6.94-.28,9.02,3.61c2.08,3.89,3.43,8.78,4.86,9.44,2.11.97,5.86-2.04,7.84-3.86.8-.74,1.13-1.85.85-2.9-.24-.89-3.28-8.65-4.11-9.48-.83-.83-1.8,1.25-4.03.69-2.22-.56-4.72-3.75-7.36-8.47-2.64-4.72-2.51-8.67,0-12.08,2.45-3.32,6.11-3.47,7.77-4.03,1.67-.56,1.94-3.89,1.39-6.66-.56-2.77.64-10.52,1.89-13.71,1.25-3.19,4.89-3.84,7.81-3.98,2.92-.14,6.82,2,8.62,2.27,1.8.28,3.19-2.22,4.44-3.61,1.25-1.39-.28-4.44.69-6.94.97-2.5,3.47-5,7.5-6.11,4.03-1.11,10.55,1.65,15.13,1.37,4.58-.28,13.59-9.35,14.7-9.49,1.11-.14,2.93.12,4.32.81,1.39.69-.14,1.6-1.39,2.43-1.25.83,2.22-.42,6.39.83,4.16,1.25,4.27,3.67,8.37,5.37,2.85,1.18,6.9-1.48,11.77,2.06,4.31,3.14,3.88,6.19,5.26,8.96,1.39,2.78,5.9,3.2,9.44,7.22,2.52,2.86,10.72,11.94,13.74,12.49,1.13.2,7.5-3.89,8.61-9.44,1.11-5.55.56-9.99-1.67-18.6ZM83.46,485.65c.42-1.43,1.34-2.25,2.59-2.3,1.59-.03,2.49.87,3.32,1.48.61.45,1.4,1.72,1.43,2.69.05,1.24-.26,1.79-1.26,2.65-1.27,1.1-2.63,1.49-3.71,1.49-.7,0-1.29-.17-1.65-.41-.95-.65-1.24-3.85-.73-5.61ZM65.15,408.84c1.16-.89,2.66-1.23,4.21-.97,1.35.23,2.6.91,3.11,1.7.52.8.94,2.15.56,3.57-.38,1.44-1.47,2.62-3.22,3.51-1.29.65-2.52.78-3.73.78-1.14,0-2.25-.07-3.31-1.72-1.36-2.12-.47-4.69,2.37-6.87ZM75.73,315.14c-.56.74-1.31,1.18-2.19,1.26-.21.02-.41.03-.6.03-2.44,0-4.07-1.6-4.62-4.55-.29-1.55.19-2.61.64-3.22.77-1.03,1.96-1.27,2.81-1.36,1.39-.15,4.41,1,4.84,3.32.25,1.34.07,3.25-.88,4.52ZM213.23,277.39c-.7.59-1.07.97-1.33,1.23-.33.34-.57.59-1.08.79-.36.14-.65.22-.92.22-.54,0-1-.3-1.72-.98-1.14-1.09-1.97-3.59-1.34-5.43.6-1.74,6.47-2.47,7.44-.87.81,1.32.82,3.47-1.05,5.04Z"/>
        <path class="st0" d="M69.07,415.17c1.31-.66,2.11-1.49,2.36-2.45.24-.9-.04-1.77-.34-2.24-.19-.28-1.08-1.08-2.14-1.26-.77-.13-1.78.17-2.79.94-1,.77-3.2,2.76-1.98,4.66,1.25,1.96,1.99,1.83,4.89.35Z"/>
        <path class="st0" d="M71.94,308.71c-.48.05-1.19.33-1.64.94-.37.51-.49,1.15-.35,1.93.64,3.45,2.74,3.24,3.43,3.17.41-.04.89-.17,1.17-.54.62-.82.62-2.31.43-3.29-.26-1.38-2.43-2.28-3.04-2.21Z"/>
        <path class="st0" d="M211.92,272.88c-.39,0-3.11-.65-3.5.88-.31,1.17.18,2.99.92,3.7.46.44.61.52.65.53-.03-.01.1-.06.21-.11.19-.08.24-.12.53-.42.28-.28.68-.7,1.44-1.34,1.21-1.02,1.14-2.21.71-2.91-.13-.22-.45-.33-.95-.33Z"/>
        <path class="st0" d="M88.47,488.93c.83-.71.92-1.52.91-1.94-.02-.6-.27-.96-.38-1.05-.66-.49-1.84-.98-2.88-.92-.26,0-.59.09-.87.61-.68,1.31-.3,3.92,0,4.38.13.06,1.67.27,3.22-1.08Z"/>
      </g>
      <g>
        <path class="st0" d="M303.02,290.32c-.42-.76-1.6-.8-2.59-.5-.62.19-.99.46-1.14.83-.16.41-.12.23.77,1.78.19.33.41.53.59.55.15,0,.52-.15.93-.65.6-.75,1.81-1.33,1.44-2.01Z"/>
        <path class="st0" d="M211.52,467.72c-.26,1.6.51,2.68,2.17,3.2.8.24,1.92.44,2.71-.04.5-.31.83-.88.98-1.71.15-.88,0-1.64-.47-2.2-.45-.55-4.88-2.42-5.39.75Z"/>
        <path class="st0" d="M215.93,331.33c-.38,1.06-.4,1.85.28,2.4.82.67,2.27.47,3.46-.8,1.04-1.12.33-1.97-.33-2.93-1.09-1.58-3.06.4-3.4,1.34Z"/>
        <path class="st0" d="M216.22,388.76c-.52.07-1.31.6-1.94,1.45-.32.44.51,2.52,1.53,2.66.27.04,1.03-.55,1.53-.94.34-.27,1.99-1.5,1.26-2.2-.98-.93-1.94-1.02-2.38-.96Z"/>
        <path class="st0" d="M319.68,330.06c-7.57,1.15-9.37,3.45-11.84,3.86-2.47.41-2.38-.49-2.38-3.29s-.49-13.65,2.06-22.37c2.55-8.72,3.7-13.81,2.3-20.23-1.4-6.41-6.83-7.98-15.21-9.37-8.39-1.4-8.63-5.76-10.77-7.32-2.14-1.56-4.19-1.56-4.19-1.56,0,0,2.55-2.3,1.56-3.04s.58-1.97-2.63-1.48c-3.21.49-7.89,3.45-12.09,3.45s-7.89-1.4-11.43-1.64-3.78.74-6.66,3.86c-2.88,3.12-11.27,5.59-13.57,6.99-2.3,1.4-3.04.9-2.47-.9.48-1.51-5.26,4.77-7.73,8.88-2.47,4.11-6.66,8.63-7.57,9.29-.9.66-1.73,1.15,0,2.14,1.73.99,5.43,7.73.74,18.09-4.69,10.36-12.42,26.48-12.91,27.38s-.16,1.42,2.06.42c2.22-1,9.59.73,11.58,7.72,1.99,6.99,2.9,18.03-.8,23.36-3.7,5.33-10.36,5.83-11.92,5.83s.16,1.15.9,2.55c.74,1.4,6.83,17.76,7.89,21.38,1.07,3.62.49,4.85.74,6.09.25,1.23,2.19,5.2,3.19,6.26,1,1.06.43,3.36-1.54,3.2-1.97-.16-4.19.08-7.73-1.64-3.54-1.73-2.88-2.71-5.02-2.63-2.14.08-6.33,1.56-7.15,7.65-.82,6.09,3.37,10.42,8.63,8.87,5.26-1.55,8.06-2.62,9.79-2.62s1.4.85,1.07,2.93c-.33,2.08-.99,9.24-4.93,17.38-3.95,8.14-10.85,16.03-12.58,19.65-1.73,3.62-2.38,4.93-2.8,6.41-.41,1.48,1.23,1.73,2.47.41,1.23-1.32,3.29-.82,4.19,0,.9.82,6.83,3.54,9.79,8.31,2.96,4.77,4.28,10.28,4.36,11.59.08,1.32.74,1.56,3.62.74,2.88-.82,28.29-.08,30.59,0,2.3.08,4.69.58,7.65-3.45,2.96-4.03,11.02-10.77,12.58-14.97,1.56-4.19.99-8.06,2.22-15.29,1.23-7.24,1.73-8.72,1.97-11.02.25-2.3,3.12-2.22,3.62-.58.49,1.64,2.55,7.24,3.12,8.31.58,1.07,2.96,3.04,7.57,1.48,4.6-1.56,5.43-3.54,4.19-8.14-1.23-4.6-6-5.67-8.22-7.07-2.22-1.4-3.7-2.47-2.55-4.28,1.15-1.81,5.43-3.29,14.55-8.47,9.13-5.18,16.69-11.59,18.42-12.99,1.73-1.4-.58-2.38-2.22-2.38s-5.02,2.06-9.54-1.73c-4.52-3.78-6.41-7.89-6.58-14.47-.16-6.58,5.02-16.28,9.87-17.43,4.85-1.15,9.74,1.53,10.81,2.6,1.07,1.07,2.18-3.75.29-7.45-1.89-3.7-3.45-6.99-8.22-13.07-4.77-6.08-5.76-9.54-5.76-13.24s.33-4.69,1.4-4.03c1.07.66,6.91,4.69,15.05,2.55,8.14-2.14,9.21-6.74,9.54-11.27.33-4.52-3.78-11.35-11.35-10.2ZM219.76,469.62c-.27,1.53-.94,2.63-1.99,3.27-.67.41-1.47.61-2.38.61-.73,0-1.53-.13-2.38-.39-2.87-.88-4.28-3.01-3.89-5.83.37-2.67,3.74-3.59,6.02-3.52,1.43.03,2.81.69,3.68,1.75.62.76,1.29,2.09.94,4.11ZM218.37,393.22c-.84.67-1.64,1.31-2.53,1.31-.08,0-.17,0-.25-.02-.56-.07-1.05-.4-1.47-.98l-.21-.29c-.73-.98-1.55-2.1-1.38-3.18.08-.49.35-.91.79-1.21,1.12-.79,1.66-.92,2.23-1.06l.23-.06c1.29-.34,2.69.08,3.84,1.14.52.48.77,1.02.75,1.61-.04,1.09-1,1.95-1.99,2.74ZM220.44,333.95c-1.28,1.37-2.41,1.79-3.32,1.79s-1.6-.43-1.97-.73c-1.67-1.37-1.05-3.4-.81-4.17.29-.96,1.05-1.68,2.24-2.14l.17-.07c.98-.38,2.78-1.08,3.88.33,1.34,1.72,1.28,3.4-.19,4.98ZM298.15,414.39c1.46,1.33,1.4,3.55-.18,6.6-.57,1.1-1.39,2.39-2.7,2.64-.15.03-.3.04-.45.04-.7,0-1.42-.31-2.14-.93-1.09-.94-1.69-2.18-1.69-3.49,0-1.18.51-2.32,1.36-3.04.34-.29.65-.57.94-.82,1.62-1.44,3.02-2.69,4.87-1ZM298.56,349.25c-1.65,19.42-5.88,43.78-9.77,59.43-3.88,15.65-15.3,40.72-20.71,54.37-5.41,13.65-11.29,24.76-13.56,27.97-2.27,3.21-3.71,3.27-5.66,3.15-1.95-.13-20.96,0-23.54,0s-2.64-1.38-2.64-2.71c0,0-.14-19.35,0-32.06.14-12.71.33-71.2.92-88.73.59-17.53,4-59.31,8.47-75.2,4.47-15.89,16.48-23.3,30.48-24.36,14-1.06,26.71,8.94,30.36,21.54,3.65,12.59,7.3,37.19,5.65,56.61ZM300.48,295.62c-.53-.04-1.29-.31-1.9-1.38-.99-1.73-1.26-3.11-.83-4.22.34-.86,1.08-1.47,2.2-1.81h0c1.98-.6,3.76-.09,4.52,1.29.9,1.65-.63,3.56-1.65,4.84-.83,1.03-1.63,1.28-2.2,1.28-.05,0-.1,0-.15,0ZM307.29,375.75c.5,1.51.13,4.05-1.2,5.43-.51.53-1.19.81-1.89.81-.27,0-.55-.04-.81-.13-1.3-.42-2.19-1.75-2.46-3.65-.26-1.87.46-4.33,2.1-5.04.6-.26,1.28-.23,1.99.09,1.02.46,1.94,1.46,2.28,2.49ZM320.23,344.5c-1.39,1.11-3.51.18-4.36-.76-.84-.93-.87-4.4.33-5.02,1.04-.55,3.25-.44,4.48.87,1,1.06,1.32,3.51-.44,4.91Z"/>
      </g>
      <g>
        <path class="st0" d="M257.59,355.09c-14.53-30.98-10.97-53.26-2.97-61.94,2.82-3.06,6.52-5.17,9-4.84.89.12,2.04,1.02,3.12,2.1-.19-1.9-.38-3.93-.38-4.31,0-.74-10.54-6.29-19.42,7.86-8.88,14.15-8.32,27.78-4.58,43.17,3.11,12.79,25.69,48.68,29.73,53.93,3.56,4.61,4.13,6.51,5.19,8.79.6-2.08,1.18-4.16,1.75-6.24-.42-4.29-8.52-11-21.44-38.53Z"/>
        <path class="st0" d="M265.24,387.37c-1.66-5.26-10.17-10.09-10.87-9.88-.45.14-1.04,1.35-2.35,3.03.24-.05.47-.08.67-.05.54.07,5,3.03,5.52,3.66,3.09,3.71,7.57,16.56,4.86,33.7-2.59,16.37-17.86,48.27-19.39,51.79-2.87,6.61-6.22,12.33-9,16.41.67.54,1.51,1.11,2.09,1.12,1.11.01,1.11,3.87,2.96,0,1.85-3.87,20.5-39.66,25.89-58.52,6.52-22.8,1.29-35.99-.37-41.25Z"/>
      </g>
      <path class="st0" d="M367.39,510.47s-6.79,0-6.79,0c-.12,0-.19-.03-.38-.42-.49-1.37-.28-3.08-.11-4.54.1-.6-.37-1.15-.98-1.16-1.52-.03-2.59,0-4.31-.07l-.7-.03c-.16,0-.13-.02-.13-.02-5.1-2.6-10.14-5.91-15.36-8.43-2.51-1.25-5.09-2.46-7.72-3.58.97-3.51.8-6.39-.56-8.55-1.35-2.14-3.62-3.29-5.87-3.94,2.6-.91,5.86-2.49,7.52-5.05.97-1.5,1.27-3.15.89-4.91-.6-2.79-2.95-5.78-10.53-5.05,2.47-2.56,3.77-5.32,3.89-8.23.17-4.24-2.23-7.55-3.41-8.91,8.3-11.9,15.04-24.88,19.77-38.53,6.96-20.94,10.83-43.4,9.55-65.52.57-28.72.13-58.77-.92-86.98-.11-1.39-.11-2.79-.44-4.23-.07-.19-.07-.29-.28-.53.15-.07-.88-.47-.73-.35h-.23s-.93,0-.93,0c-16.2,0-64.49.16-80.42.08-9.98-.28-41.49,1.43-42.91,1.78-.01.13-.07.54.33.54,4.05-.04,18.71-.17,26.88-.2-14.01,2.07-19.78,5.35-28.47,10.71,9.32-5.51,19.69-8.91,30.37-10.46,1.33-.19,2.69-.27,4.04-.28,3.31-.03,6.57-.06,9.73-.09,2.85.01,6.94.02,11.79.02,3.33.37,6.63.88,9.88,1.55,11.62,2.41,21.44,8.56,29.63,16.64h0s.01,0,.02.01c5.77,5.7,10.73,12.34,14.91,19.34.02.04.03.09.06.13h.02c1.43,2.4,2.78,4.85,4.03,7.31,14.12,26.91,14.14,58.91,8.19,88.11-5.8,29.57-20.35,57.35-41.16,79.07-10.57,10.73-22.6,20-34.35,29.55-.94.76.09,2.24,1.14,1.63,9.87-5.56,21.56-7.89,32.83-8.31,15.39-.5,29.63,7.13,42.69,14.54,1.98.99,3.87,2.63,6.18,3.14.54.02,1.62.07,2.21.06,0,0,.99.01,1.81.02-.08.82-.12,1.64-.06,2.5.03.51.12,1.1.31,1.66-21.35.05-74.9.18-102.09.25-.04-.11-.08-.22-.11-.33,0,0-.48.16-.95.33-9.35.02-15.32.04-15.32.04.21-.03-128.5.1-127.42.03-.12-.21-.2-.5-.23-.81,0-.25,0-.51,0-.76,0-.51-.4-.95-.92-.98-.69-.05-.98.45-1.06,1.02h0v.07c-.03.24-.02.48,0,.7.1,22.71-.08,45.44-.82,68.14-.37,7.26-.43,14.63-.87,21.95-.05.09-.09.18-.14.28l.12.06c-.49,7.83-1.42,15.6-3.66,23.12-1.25,3.88-2.8,7.86-4.63,11.82-1.14.54-2.28,1.07-3.43,1.59,1.08-.38,2.16-.77,3.23-1.17-7.83,16.77-20.75,32.98-38.12,38.17,15.06-4.03,26.2-16.42,34.31-29.18,1.96-3.07,3.7-6.26,5.26-9.54,2.06-.79,4.11-1.65,6.12-2.63,6.31-2.76,3.27-5.5-.75-7.37,6.08-2.19,10.01-6.94,5.7-13.26,2.36-1.37,4.53-3.02,6.03-5.43.61-1.08.73-2.55.2-3.68-.35-.83-.88-1.45-1.5-1.94,2.85-4.4,6.35-7.73,8.93-10.17.98-.93,1.8-1.7,2.41-2.38,1.23,3.7,3.85,6.88,7.95,8.48,13.15,3.66,15.46-12.07,12.02-23.47,0-.01,0-.03,0-.04,0,0-.01,0-.01,0-1.22-4.01-3.14-7.48-5.56-9.38-4.31-3.26-8.96-2.5-12.92-.04,1.36-2.38,2.56-4.85,3.52-7.44,4.79-12.07,2.91-27.48-6.78-36.66-.55-.54-1.13-1.05-1.72-1.55,2.16-.02,4.07-1.51,5.71-2.72.18-.16.37-.32.56-.5.12,3.28.98,6.81,4.52,5.25,2.62-1.75,4.22-4.31,5.71-6.93.21,5.61,3.45,8.74,8.6,3.28.78-.85,1.46-1.77,2.1-2.72.34,1.33.74,2.63,1.31,3.91,2.29,5.39,5.38,2.36,8.13-.64.78-.87,1.52-1.78,2.23-2.7.14,1.08.35,2.14.72,3.22,1.59,4.86,5.05.93,6.99-1.31.64-.76,1.23-1.55,1.83-2.33,1.59,5.59,6.38,5.49,10.4,1.57.83-.73,1.59-1.51,2.33-2.32.61,1.16,1.35,2.18,2.37,3.04,2.44,2.3,5.65.57,7.77-1.17.79-.61,1.52-1.27,2.24-1.95.65,1.07,1.36,2.04,2.28,2.92,2.4,2.61,5.09.68,7.29-1.03.74-.57,1.43-1.19,2.12-1.81.98,1.34,2.13,2.34,3.49,3.12,3.13,1.98,6.23,1,8.64-1.48.75-.71,1.41-1.48,2.05-2.28h.05c1.21,6.08,6.47,5.91,10.99,2.17.83-.66,1.59-1.41,2.3-2.18h.77c1.18,1.15,2.41,2.19,3.77,3.1,3.24,2.33,7.52,3.17,10.21-.39.7-.85,1.27-1.78,1.75-2.75l.79-.08c1.28,1.84,3.36,3.25,5.54,2.16,1.33-.54,2.52-1.28,3.65-2.1,37.05-.09,103.14-.25,103.14-.25.55,0,.99-.45.99-1,0-.55-.45-.99-1-.99ZM349.63,253.44s.05,0,.06,0c.05.03.01.02-.06,0ZM334.45,287.24c-.67-1.04-1.36-2.07-2.06-3.09-.23-.59.03-1.33.49-2.43.61-1.46,1.38-3.29,0-4.98-1.37-1.68-3.49-1.57-5.2-1.47-1.01.06-2.06.11-2.38-.26l-.08.07c-.87-.97-1.76-1.92-2.68-2.85.36-.02.74-.05,1.18-.08,3.9-.29,9.79-.73,12.14,2.91,2,3.11.63,6.71-.58,9.88-.31.81-.6,1.58-.82,2.31ZM330.7,281.82c-1.14-1.55-2.31-3.07-3.54-4.53.21,0,.42-.02.63-.03,1.7-.09,2.87-.09,3.55.74.56.69.33,1.47-.29,2.96-.11.27-.23.56-.34.86ZM348.49,318.97c-2.66-9.83-6.87-19.9-12.44-29.13-.17-.93.44-2.53,1.08-4.2,1.31-3.44,2.95-7.71.4-11.67-2.99-4.64-9.86-4.12-13.96-3.82-1.11.08-2.5.19-2.83.07,0,0,.07.03.15.1l-.12.12c-2.99-2.87-6.18-5.48-9.55-7.75-7.05-4.81-15.03-7.64-23.31-9.15,11.4-.01,25.04-.04,36.76-.06.19.69.56,1.25,1.19,1.76l2.05,2.09c.67.68,2.43,2.48,3.08,3.13.53.11,1.06.23,1.65.27-.09-.66-.24-1.23-.38-1.8-.64-.65-2.35-2.39-3.01-3.07,0,0-2-2.05-2-2.05-.1-.13-.21-.23-.31-.34,8.34-.02,15.51-.03,19.9-.03.47,0,1.39,0,2.12,0,.56,8.55.86,17.44,1.05,26.5-.53-.66-1.08-1.33-1.37-1.7,0,0-1.77-2.18-1.77-2.18-.6-.97-1.36-1.43-2.54-1.55-.12,1.18.17,2.02.99,2.81l1.77,2.18c.58.71,2.09,2.59,2.65,3.27.11.04.22.07.33.1.28,15.45.27,31.33.62,46.8-.58-3.59-1.3-7.16-2.19-10.7ZM324.61,456.45c-.13,3.12-1.91,6.09-5.29,8.83l-2.52,2.04,3.18-.57c6.74-1.22,10.54-.08,11.3,3.39.29,1.32.07,2.52-.66,3.65-1.75,2.71-6.2,4.49-9.78,5.25l-4.53.96,4.58.67c4.22.62,6.78,1.85,8.07,3.89,1.08,1.71,1.21,4.07.42,7.02-4.98-2.03-10.15-3.68-15.43-4.49,1.15-10.83-4.72-18.01-6.82-20.2,5.31-5.6,10.23-11.59,14.72-17.89,1.07,1.33,2.89,4.09,2.75,7.45ZM302.68,471.27c1.11-1.05,2.19-2.13,3.28-3.21,1.91,2.04,7.39,8.84,6.35,18.81-1.66-.2-3.32-.32-5-.34.5-6.81-3.24-13.17-4.63-15.27ZM305.08,486.57c-8.95.35-17.94,1.82-26.29,5.07,7.7-6.21,15.39-12.45,22.65-19.23,1.39,2.18,4.7,8.1,4.2,14.15-.19,0-.38,0-.57.01ZM133.4,575.92c.03.27-.74.93-1.23,1.56-.87.98-1.62,2.12-2.2,3.34.29-1.49.79-2.95,1.52-4.29.56-1.06,1.3-2.09,2.13-2.93.03.87-.02,1.71-.22,2.32ZM128.11,579.9c-2.46,2.19-12.51,11.49-15.74,19.66-.47,0-.94.01-1.4.05,7.01-13.45,14.13-20.48,18.72-23.96-.73,1.34-1.27,2.77-1.59,4.25ZM109.8,629.45c-.28.92-1.89,1.72-2.76,2.34-1.72,1.03-3.5,1.98-5.32,2.87,1.22-2.62,2.26-5.31,3.22-8.03,1.81.61,4.11,1.22,4.86,2.82ZM107.42,624.75s-.43.21-.89.43c-.31-.14-.62-.27-.94-.4,1.14-3.48,2.05-7.04,2.76-10.63.9-.43,1.8-.87,2.7-1.34-.15.14-.26.24-.26.24,4.25,4.52,1.57,9.27-3.37,11.71ZM113.3,610.91c-1.55,1.17-3.22,2.22-4.93,3.16.8-4.08,1.33-8.21,1.56-12.36,1.82-.46,3.88-.67,5.57-.08,5.19,2.32.87,7.07-2.2,9.27ZM127.86,586.03c-.11.51-1.69,2.01-3.09,3.33-2.68,2.54-6.33,6-9.33,10.67-.32-.11-.65-.22-.99-.29,2.74-6.38,9.73-13.46,13.32-16.83-.03,1.04,0,2.08.17,3.1l-.08.02ZM140.14,564.77c2.04,5.35,2.4,11.48-.33,16.67-.9,1.78-2.1,3.45-3.6,4.81,5.97-4.59,7.8-12.57,6.39-19.73,1.8,1.74,3.18,4.27,4.07,7.38-.05.01-.08.02-.08.02.39,2.05-.16,4.5-.67,6.55-.61,2.25-1.54,4.44-2.88,6.41,1.93-2.29,3.6-5,4.58-7.91.25,2.37.27,4.92.04,7.62-.51,3.41-1.72,7.55-5.35,8.53-3.48,1.2-7.19-.41-9.48-3.16-2.03-2.24-3.01-5.05-3.11-7.92.74-2.42,2.5-4.58,4.52-6.14,2.32-1.83,1.22-5.48.9-7.96-.41.24-.77.53-1.15.8-1.2.46-12.38,5.23-23.71,25.96.14-2.06.3-4.12.42-6.18,1.06-2.41,2.72-4.52,4.44-6.51,2.19-2.86,4.53-5.67,6.84-8.53,2.25-2.8,4.45-5.7,6.41-8.77,4.59-3.08,8.59-3.48,11.75-1.93ZM128.77,525.2c9.54,14.39,5.12,30.45-4.01,43.46-.72.86-1.37,1.75-1.95,2.64-.77,1-1.56,1.97-2.38,2.92-3.35,4.29-7.66,8.69-9.6,13.92,1.09-19.45,1.27-38.92,1.3-58.39.93,3.42,2.51,6.62,4.76,8.91.4,3.83.64,7.73.39,11.62.76-3.3,1.17-6.68,1.42-10.09.77.53,1.6.96,2.49,1.28.24,2.91.28,5.9.13,8.86-.18,3.18-.6,6.35-1.45,9.45,2.16-5.68,3.02-11.74,3.23-17.82.85.13,1.73.18,2.67.11.91,6.31-.9,12.99-2.68,19.05-.41,1.99-1.1,4.84-1.57,6.79,1.24-1.99,2.31-4.07,3.36-6.19,2.31-6.96,4.19-14.54,2.5-21.87-10.84,2.22-13.51-9.94-15.25-18.74,0-2.76,0-5.52,0-8.28.02,0,.04.01.06.01h7.83c.5,2.26,1.57,4.66,3.93,5.42.05.01.11,0,.16.02,1.8,2.16,3.35,4.5,4.64,6.94ZM126.35,517.14c-2.77.76-4.09-1.93-4.42-4.32h9.41c-.03.53-.04,1.13-.03,1.74-1.43,1.22-3.27,2.09-4.96,2.58ZM139.36,516.04c-5.8,6.86-7.04,2.98-6.12-3.23h8.3c0,.11,0,.22.01.33-.69,1-1.41,1.97-2.19,2.89ZM152,513.07c.06.27.14.52.21.78-.75.9-1.54,1.76-2.4,2.53-5.11,4.37-6.93,1.48-6.38-3.57h10.26s-1.68.27-1.68.27ZM179.85,517.26c-2.72.97-4.59-1.71-4.63-4.16l-.99.09h0c-.5.05-.99.09-.99.09.05.26.12.5.19.74-1.64,1.71-3.39,3.44-5.38,4.62-.41.21-.96.52-1.32.23-1.04-1.36-.92-3.72-.93-5.43l-1.99.03c.03.31.06.62.1.93-.83.87-1.68,1.73-2.56,2.53-1.2,1.07-2.48,2.16-3.86,2.76-.74.3-1.11.16-1.56-.36-1.28-1.82-1.63-4.34-1.96-6.53h32.54s-.54.19-.54.19c.05.11.12.21.17.32-1.88,1.63-3.97,3.19-6.29,3.94ZM192.56,516.38c-2.28.56-3.78-1.69-4.54-3.6h10.97s-.6.29-.6.29c.03.06.07.1.11.16-1.81,1.34-3.81,2.63-5.94,3.15ZM207.86,514.81c-1.43.69-3.19,2.06-4.74,1.46-1.23-.73-2.03-2.16-2.66-3.49h10.55s0,0,0,0l-.86.5s.02.03.03.04c-.76.52-1.52,1.04-2.32,1.5ZM222.06,514.67c-1.16.88-2.47,1.65-3.8,1.85-2.38.23-4.78-1.78-6.08-3.75h12.03c-.68.67-1.39,1.32-2.15,1.9ZM231.05,516.31c-2.86.8-4.37-1.16-4.68-3.54h11.19c-1.9,1.64-4.09,3.02-6.51,3.54ZM252.16,515.14c-3.57,3.87-8,.8-11.04-2.38,2.12,0,6.7-.02,12.92-.03-.55.87-1.17,1.69-1.88,2.41ZM260.31,513.86c-1.39.45-2.4-.17-3.12-1.14,1.92,0,3.97,0,6.12-.01-.97.48-1.97.89-3,1.15Z"/>
    </g>
  </g>
  <g>
    <path class="st0" d="M407.04,314.85l-.45-3.71,7.68-1.18v-53.78l-7.68-1.18.45-3.62,12.02.27,19.98-.27c11.57-.09,16.99,6.96,16.99,13.83,0,7.23-6.06,13.47-14.92,15.55,12.11.54,18.62,7.14,18.62,15.64,0,11.75-10.21,16.45-24.22,18.44l-16.45-.27-12.02.27ZM425.66,279.41h6.78c7.23,0,12.02-5.97,12.02-13.11,0-6.33-3.53-10.58-10.76-10.76l-8.05.54v23.32ZM432.8,310.6c11.48,0,15.19-7.68,15.19-14.01,0-7.41-4.97-12.93-13.47-12.93h-8.86v26.49l7.14.45Z"/>
    <path class="st0" d="M485.73,314.85l-.45-3.71,10.49-1.18v-20.16l-19.98-33.81-6.6-.99.45-3.62,12.84.27,12.47-.27.45,3.62-7.14,1.18,15.1,25.31.45,3.98,15.64-29.29-7.41-1.18.45-3.62,10.48.27,9.67-.27.45,3.53-6.6.99-19.44,34.17.09,19.89,10.12,1.18-.45,3.71-15.37-.27-15.73.27Z"/>
    <path class="st0" d="M546.73,314.85l-.45-3.71,7.68-1.18v-53.78l-7.68-1.18.45-3.62,12.47.27,13.38-.27.45,3.62-7.68,1.18v53.87l21.6-.27,6.42-12.38h3.8l-3.16,17.45-34.8-.27-12.47.27Z"/>
    <path class="st0" d="M609.6,284.56c0-19.98,10.03-30.64,33.45-34.71,18.89,0,31.46,13.56,31.46,31.82,0,19.98-10.04,30.64-33.45,34.71-18.89,0-31.46-13.56-31.46-31.82ZM662.11,284.66c0-13.2-5.79-29.29-21.15-29.29-13.2,0-18.89,11.39-18.89,26.12,0,13.56,5.88,29.38,21.24,29.38,13.11,0,18.8-11.48,18.8-26.21Z"/>
    <path class="st0" d="M711.77,316.2l-22.96-60.11-6.6-1.08.45-3.62,14.01.27,11.48-.27.45,3.62-7.23,1.18,15.37,43.03.27,5.51,17.27-48.54-7.5-1.18.45-3.62,10.21.27,9.4-.27.45,3.62-6.42,1.08-22.06,57.94-7.05,2.17Z"/>
    <path class="st0" d="M758.52,310.24l-1.99-13.29h6.96l3.16,7.96c2.98,3.62,7.78,5.88,12.38,5.88,6.87,0,11.39-4.25,11.39-10.67,0-4.97-2.89-8.68-8.77-11.21l-11.03-5.06c-8.32-3.8-12.11-8.68-12.11-15.46,0-8.95,7.77-15.46,22.42-18.53,6.05,0,12.74,1.99,17.45,5.24v13.02h-5.33l-2.62-8.23c-3.07-3.16-6.33-4.52-10.67-4.52-6.6,0-10.85,3.44-10.85,8.95,0,4.16,2.53,7.23,7.86,9.58l11.03,4.97c9.4,4.25,13.47,9.4,13.47,16.99,0,10.12-7.78,16.9-23.68,20.52-7.23,0-13.47-1.99-19.07-6.15Z"/>
    <path class="st0" d="M403.97,439.03v-9.31h9.85l.81-1.9c1.27-3.16,1.36-6.24,1.36-13.2v-49.99l-9.94-1.18.45-3.62,15.28.27,12.38-.27.45,3.62-7.23,1.18v48c0,8.59-2.89,13.47-6.6,17.45l-8.22,8.95h-8.59Z"/>
    <path class="st0" d="M455.55,400.8v-36.16l-7.68-1.18.45-3.62,12.38.27,13.29-.27.45,3.62-7.14,1.18v36.97c0,11.03,4.7,17.45,14.73,17.45,9.31,0,14.37-6.42,14.37-17.72v-36.7l-7.86-1.18.45-3.62,11.57.27,10.49-.27.45,3.62-7.41,1.18v36.07c0,11.93-4.88,19.89-22.87,24.13-18.89,0-25.67-9.67-25.67-24.04Z"/>
    <path class="st0" d="M525.56,423.31l-.45-3.71,7.68-1.18v-53.78l-7.68-1.18.45-3.62,12.02.27,19.98-.27c11.57-.09,17,6.96,17,13.83,0,7.23-6.06,13.47-14.92,15.55,12.11.54,18.62,7.14,18.62,15.64,0,11.75-10.21,16.45-24.22,18.44l-16.45-.27-12.02.27ZM544.18,387.87h6.78c7.23,0,12.02-5.97,12.02-13.11,0-6.33-3.53-10.58-10.76-10.76l-8.04.54v23.32ZM551.32,419.06c11.48,0,15.19-7.68,15.19-14.01,0-7.41-4.97-12.93-13.47-12.93h-8.86v26.49l7.14.45Z"/>
    <path class="st0" d="M590.67,423.31l-.45-3.71,7.68-1.18v-53.78l-7.68-1.18.45-3.62,12.93.27,12.93-.27.45,3.62-7.68,1.18v53.78l7.68,1.18-.45,3.71-12.93-.27-12.93.27Z"/>
    <path class="st0" d="M631.53,423.31l-.45-3.71,7.68-1.18v-53.78l-7.68-1.18.45-3.62,12.47.27,13.38-.27.45,3.62-7.68,1.18v53.87l21.61-.27,6.42-12.38h3.8l-3.16,17.45-34.8-.27-12.47.27Z"/>
    <path class="st0" d="M694.36,423.31l-.45-3.71,7.68-1.18v-53.78l-7.68-1.18.45-3.62,12.47.27,36.88-.27.9,16.72h-3.71l-5.24-11.66-22.69-.27v23.23l11.66-.36,3.62-9.58h3.8l-.9,11.75.9,12.47h-3.8l-3.62-9.58-11.66-.36v26.3l23.68-.27,6.06-12.11h4.07l-3.07,17.17-36.88-.27-12.47.27Z"/>
    <path class="st0" d="M760.01,423.31l-.45-3.71,7.68-1.18v-53.78l-7.68-1.18.45-3.62,12.47.27,36.88-.27.9,16.72h-3.71l-5.24-11.66-22.69-.27v23.23l11.66-.36,3.62-9.58h3.8l-.9,11.75.9,12.47h-3.8l-3.62-9.58-11.66-.36v26.3l23.68-.27,6.06-12.11h4.07l-3.07,17.17-36.88-.27-12.47.27Z"/>
    <path class="st0" d="M835.35,423.31l-.45-3.71,10.4-1.18v-53.78l-12.47.18-4.25,12.02h-4.07v-16.99l26.67.27,26.3-.27v16.99h-4.07l-4.25-12.02-12.47-.18v53.78l10.04,1.18-.45,3.71-15.28-.27-15.64.27Z"/>
    <path class="st0" d="M406.76,512.07l-.37-3.03,11.1-1.26v-22.71l.37-1.33-3.18,1.48-7.62,1.55-1.4-2.96,16.57-7.25h4.07v31.22l11.1,1.26-.37,3.03-15.09-.22-15.16.22Z"/>
    <path class="st0" d="M449.82,511.99l-1.55-3.33,13.02-9.84c6.44-4.88,10.36-8.14,10.36-12.95,0-3.11-1.7-5.7-5.99-5.7-2,0-3.55.67-4.66,1.33l-2.52,8.29h-6.21v-8.66l14.65-5.33c8.8,0,13.91,3.92,13.91,9.84,0,6.81-5.62,10.5-14.13,15.24l-11.1,5.92,9.47-2.29h19.09v2.66l-2.07,4.81h-32.25Z"/>
    <path class="st0" d="M498.93,529.01v-3.18l20.71-40.39.45-.96h-26.26v-7.62h32.77l1.7,1.92-21.68,50.23h-7.69Z"/>
    <path class="st0" d="M559.14,478.78c8.95,0,14.79,6.44,14.79,16.05s-5.77,15.24-18.64,18.27c-9.84,0-16.05-8.21-16.05-20.93,0-15.24,9.39-26.41,28.18-33.51l1.11,3.33c-13.76,6.29-19.01,12.65-19.6,24.78l10.21-7.99ZM564.98,496.75c0-6.73-2.74-11.17-6.95-11.17-1.85,0-3.55.89-6.36,3.11l-2.81,2.29c.22,11.61,2.88,18.12,8.21,18.12,4.73,0,7.92-4.88,7.92-12.35Z"/>
    <path class="st0" d="M618.63,485.44v4.44h-32.55v-4.44h32.55Z"/>
    <path class="st0" d="M629.8,511.99l-1.55-3.33,13.02-9.84c6.44-4.88,10.36-8.14,10.36-12.95,0-3.11-1.7-5.7-5.99-5.7-2,0-3.55.67-4.66,1.33l-2.51,8.29h-6.21v-8.66l14.65-5.33c8.8,0,13.91,3.92,13.91,9.84,0,6.81-5.62,10.5-14.13,15.24l-11.1,5.92,9.47-2.29h19.09v2.66l-2.07,4.81h-32.25Z"/>
    <path class="st0" d="M675.35,495.05c0-10.87,7.99-16.57,19.9-19.23,10.06,0,18.27,7.47,18.27,17.98s-7.99,16.72-19.83,19.31c-10.21,0-18.34-7.47-18.34-18.05ZM704.05,496.46c0-9.47-3.77-16.05-10.65-16.05-5.47,0-8.58,5.1-8.58,12.06,0,9.47,3.7,16.05,10.58,16.05,5.47,0,8.65-5.18,8.65-12.06Z"/>
    <path class="st0" d="M725.19,511.99l-1.55-3.33,13.02-9.84c6.44-4.88,10.36-8.14,10.36-12.95,0-3.11-1.7-5.7-5.99-5.7-2,0-3.55.67-4.66,1.33l-2.51,8.29h-6.21v-8.66l14.65-5.33c8.8,0,13.91,3.92,13.91,9.84,0,6.81-5.62,10.5-14.13,15.24l-11.1,5.92,9.47-2.29h19.09v2.66l-2.07,4.81h-32.25Z"/>
    <path class="st0" d="M791.45,478.78c8.95,0,14.79,6.44,14.79,16.05s-5.77,15.24-18.64,18.27c-9.84,0-16.05-8.21-16.05-20.93,0-15.24,9.39-26.41,28.18-33.51l1.11,3.33c-13.76,6.29-19.01,12.65-19.6,24.78l10.21-7.99ZM797.3,496.75c0-6.73-2.74-11.17-6.95-11.17-1.85,0-3.55.89-6.36,3.11l-2.81,2.29c.22,11.61,2.88,18.12,8.21,18.12,4.73,0,7.91-4.88,7.91-12.35Z"/>
  </g>
</svg>