<?xml version="1.0" encoding="UTF-8"?>
<svg id="Design" xmlns="http://www.w3.org/2000/svg" version="1.1" viewBox="0 0 80 200">
  <!-- Generator: Adobe Illustrator 30.1.0, SVG Export Plug-In . SVG Version: 2.1.1 Build 136)  -->
  <defs>
    <style>
      .st0 {
        fill: #ff5233;
      }

      .st1 {
        fill: #e9d19e;
      }

      .st2 {
        fill: #34001d;
      }
    </style>
  </defs>
  <path class="st2" d="M5.47,126.62c-.44.77.45,14.75,2.16,19.86,1.7,5.11,5.11,13.28,6.69,16.45,1.59,3.18,4.2,10.21,6.01,12.82s3.52,3.63,2.95,5.22-1.02,3.06-2.5,3.06-5.68-4.43-6.36-6.47-8.96-27.8-9.76-31.66c-.79-3.86-3.06-21.56-3.06-23.15,0,0,1.06-2.19,1.82-1.93,2.13.74,13.62,11.8,16.57,14.07,2.95,2.27,9.08,6.35,18.27,11.12s15.32,7.6,16.23,8.51,1.13,2.16,0,2.16-22.47-11.35-28.93-14.86c-6.47-3.52-19.96-15.42-20.08-15.2Z"/>
  <path class="st2" d="M29.92,162.78c1.17-1.01,3.03-.39,4.9.39s5.99,2.72,11.98,1.95,16.73-.89,18.52-1.34,4.12-1.62,4.12-.84-.31,1.61-1.4,2.36-2.41,1.53-4.12,1.53-5.29,0-7.47.78-6.61,3.89-7.39,3.97-1.4-.39-3.66.93c-2.26,1.32-5.68,1.87-11.36-.39s-7.55-3.58-6.92-5.21c.62-1.63,2.8-4.12,2.8-4.12Z"/>
  <path class="st2" d="M78.36,158.23c-.29-3.78-1.4-6.54-3.67-10.5-2.28-3.97-6.68-8.41-10.35-11.05-3.67-2.64-7.97-4.74-9.91-6.57-1.95-1.84-2.53-3.45-3.05-3.49-.51-.04-.92.07-1.51.77-.59.7-1.21,1.06-1.25-.26-.04-1.32.37-5.84.4-7.64.04-1.8.92-2.35.95-3.52.04-1.17-.11-5.47.07-6.87.18-1.4,4.38-15.82,5.21-18.81.83-2.98,1.86-8.75,1.86-10.09s-.21-2.98.51-4.22c.72-1.23,4.12.21,4.68,0,.56-.21,1.23-2.3,1.99-2.25.77.05.97,1.07,1.79,1.02s1.74-1.33,2.3-1.33,1.23-.61,1.38.41-.05,2.09,0,2.96c.05.87,1.07,1.33,1.53.82.46-.51.66-3.17.61-3.88-.05-.71,1.3-7.3,1.32-10.52.01-3.22.37-5.05-.55-9.34-.92-4.29-2.35-6.94-6.18-10.21-3.83-3.27-8.42-6.43-8.42-7.3s.41-1.12,1.07-2.04c.66-.92,1.89-1.17,2.86-1.17s2.4-.41,5.36-3.37c2.96-2.96,4.75-4.03,4.65-4.95s-.05-4.75-.66-6.02c-.61-1.28-.92-1.28-1.12-2.04-.2-.77.41-1.84.15-2.4-.26-.56-.46-.87-1.53-.66-1.07.2-1.43-.36-2.6,1.33-1.17,1.68-7.61,6.69-9.39,7.86-1.79,1.17-3.06,2.86-7.4,6.74-4.34,3.88-5.16,5.51-6.18,6.48-1.02.97-2.05,1.58-2.51,1.07-.45-.51-.1-.61.92-2.45,1.02-1.84,4.19-5.97,5.41-8.94,1.23-2.96,4.75-9.67,5.62-12.16.87-2.49,1.53-5.6.05-7.44-1.48-1.84-2.76-2.2-4.24-2.91-1.48-.71-1.94-1.12-2.6-.41-.66.71-1.74,4.9-3.01,6.84-1.28,1.94-5.21,7.4-8.99,15.62-3.78,8.22-5.82,12.36-8.48,19.61-2.66,7.25-3.63,10.36-4.34,13.99-.71,3.63-.2,10.67-.15,17.1.05,6.43.2,13.27.15,17.77-.05,4.49-.71,5.72-.31,6.48s.56,1.43.56,1.43c0,0-2.5,2.91-3.27,5.16-.56,1.63-.92,2.76-1.12,3.83-.2,1.07-.92,1.43-1.53.87-.61-.56-3.17-2.76-3.93-3.47-.77-.71-.77-1.68-1.53-1.33-.77.36-2.76,2.04-3.98,2.55-1.23.51-1.17,2.86-1.94,4.29-.77,1.43-1.75,3.02-.92,4.37.45.74,2.03-.36,2.03-.78s.57-3.12,1.19-4.26c.62-1.14,1.66-1.87,2.13-2.44s1.51-.47,1.92,0c.42.47,3.17,2.13,3.64,2.75s.62,1.3.21,2.18c-.42.88-.93,3.58-1.25,4.16-.31.57-.88.42-1.71-.52-.83-.93-1.94-2.39-2.48-1.45-.54.93-1.68,1.71-1.16,2.31.52.6,6.54,5.74,9.87,7.98,3.32,2.23,10.13,6.67,11.37,6.85,1.24.18,2.73,1.36,4.62,2.49,1.9,1.13,5.81,3.14,9.42,5.21,3.61,2.07,11.91,7.88,14.64,9.72,2.73,1.84,5.75,3.79,6.1,4.03.36.24.95-.12,1.66-.83s1.42-1.01.89-1.9c-.53-.89.41-.3-1.72-1.48-2.13-1.19-15.05-8.3-16.53-9.13-1.48-.83-2.43-1.42-2.55-2.19-.12-.77.89-1.36,2.31-1.36s2.96-.3,3.32.83c.36,1.13.24,2.73,2.84,3.32,2.61.59,3.38.3,3.79,1.07s.36,1.6,1.48,1.66,1.07,2.13,1.78,2.13,1.96-.36,2.67-1.72c.71-1.36,1.96-1.6.53-2.49-1.42-.89-4.03-2.31-5.75-3.32-1.72-1.01-4.33-1.36-6.28-3.44s-3.02-3.56-3.61-4.74c-.59-1.19-1.2-1.54-.27-2.31s1.69-.71,2.82.77c1.13,1.48,4.39,4.27,6.04,5.21,1.66.95,4.03,1.66,6.22,3.56,2.19,1.9,8,6.99,9.6,10.67,1.6,3.67,3.24,8.44,2.58,11.2-.66,2.75-1.69,5.1-3.78,6.98-2.09,1.87-6.17,4.66-8.7,6.46-2.53,1.8-6.65,5.36-8.19,7.23-1.54,1.87-3.16,3.34-3.71,4.3-.55.95-1.32,2.42-1.58,3.19s.07,2.24.99,2.28c.92.04,3.41-.15,5.18-1.17,1.76-1.03,3.08-2.39,3.34-3.01s.15-1.21-.51-.84c-.66.37-1.58.44-1.8-.18-.22-.62.44-2.83,2.13-4.48,1.69-1.65,4.55-4.22,5.65-4.77,1.1-.55,1.65-.88,2.2-.62s-.18,7.53-.44,10.46c-.26,2.94.07,6.65.37,8.37.29,1.73-.22,1.91,1.36,1.25,1.58-.66,1.98-.95,1.87-1.73-.11-.77-.84-1.21-.84-2.17s.62-7.49,1.25-10.43c.62-2.94,2.42-7.27,4.37-11.79,1.95-4.52,4-9.03,3.71-12.81ZM46.39,121.97c-.35,2.63.43,4.12-.71,3.76s-7.81-1.77-11.57-3.98c-3.76-2.2-8.73-5.4-10.79-7.03-2.06-1.63-3.41-2.56-3.41-1.77s-.85,1.7.36,2.77c1.21,1.06,9.94,6.32,14.41,8.59,4.47,2.27,10.65,2.2,10.72,3.55s-.64,7.38-.78,9.37c-.14,1.99-.99,1.7-1.56,1.77-2.76.34-13.13-6.18-16.54-8.59-3.41-2.41-9.23-6.1-10.65-8.31-1.42-2.2-.92-1.63,0-4.33.92-2.7,3.19-7.67,3.83-8.87.64-1.21.21,0,1.85,1.28,1.63,1.28,6.67,5.39,11.07,6.96s10.08,2.27,11.85,2.41c1.77.14,2.27-.21,1.92,2.41ZM46.83,105.8c-.51,1.53-.36,1.93-1.16,2.6-.8.67-1.38,1.54-.8,1.54s1.74-1.16,1.96.65-.09,2.11-1.1,4.07c-1.01,1.96.23,1.53-1.59,1.67s-5.3-.15-10.46-2.47c-5.16-2.32-8.57-4.87-9.74-6.83-1.16-1.96.22-5.52-.36-7.7-.58-2.18-.09-14.17-.12-22.74-.03-8.57-.68-15.04.19-18.24.87-3.2,5.38-16.56,7.7-21.87,2.32-5.3,7.85-16.35,10.17-19.04s2.98-4.07,3.85-6.61c.87-2.54,1.02-5.3,2.4-5.16,1.38.15,2.18.36,3.12,2.69.94,2.32-.22,4.58-2.25,9.15-2.03,4.58-6.79,13-8.04,15.55-1.26,2.54-2.05,3.92-2.64,6.1-.58,2.18-4.43,9.3-4.94,11.48-.51,2.18-1.31,2.62-2.18,5.45-.87,2.83-2.03,7.12-1.38,7.99.65.87,1.45.73,2.47-.65,1.02-1.38.29-3.12,1.16-5.81.87-2.69,2.71-10.03,4.12-12.13,1.4-2.11,1.88-3.12,3.39-4.72,1.51-1.6,8.77-6.83,12.48-11.12,3.71-4.29,8.86-7.92,10.61-9.59,1.74-1.67,3.27-3.49,3.92-3.12.65.36,1.31,1.6,1.31,3.56s1.45,3.34-.29,4.65c-1.74,1.31-7.05,4.86-10.32,7.12-2.83,1.96-9.76,7.77-11.97,10.1-2.2,2.32-3.8,4.87-5.03,9.23-1.24,4.36-2.83,9.15-3.27,10.68-.44,1.53-.8,2.4.07,2.54.87.15,2.69-2.25,2.91-4.14.22-1.89,1.09-5.74,2.11-7.99,1.02-2.25,2.25-5.59,4.72-7.99,2.47-2.4,5.96-6.47,6.97-6.47s2.03.29,4.72,3.34c2.69,3.05,4,3.85,5.96,5.88,1.96,2.03,3.85,1.74,4.36,5.88.51,4.14.94,5.23.65,10.03-.29,4.8-.65,5.3-.65,6.68s-.29,1.96-2.18,1.74c-1.89-.22-3.71.94-3.85-3.12-.15-4.07-.15-5.96.36-8.5.51-2.54.65-2.54,0-4.94-.65-2.4-1.6-4.21-2.54-4.65-.94-.44-1.02.73-2.03-.36-1.02-1.09-1.16-1.96-1.89-1.96s-1.16.65-1.38-.36c-.22-1.02-.44-1.74-1.16-1.67-.73.07-1.74-.44-3.34,2.98s-2.69,4.36-3.92,6.97c-1.24,2.62-2.11,4.72-2.47,7.48-.36,2.76-1.31,5.09.36,5.59,1.67.51,2.11,1.38,1.96-1.74-.15-3.12.44-5.01,1.24-8.14.8-3.12,2.25-5.67,3.63-6.61,1.38-.94,1.38-.15,2.62.58,1.24.73,2.47-.65,4.07-.22,1.6.44,1.96,1.31,1.96,3.85s.15,5.38.15,9.52.87,6.68-.36,6.68-1.09.51-2.47-1.24c-1.38-1.74-2.32-4.29-2.32-7.27s1.02-4.65.29-5.3c-.73-.65-1.16-.8-2.03-.44-.87.36-.65.58-1.31,3.85-.65,3.27-.87,3.05,0,5.52.87,2.47,1.74,2.98,1.74,5.74s0,8.57-.65,12.21c-.65,3.63-3.34,9.31-4.87,13.74-1.53,4.42-2.62,5.8-2.62,5.8Z"/>
  <path class="st0" d="M25.92,163.01c1.85-1.05,3.26-1.12,5.06-.71,1.1-.19,2.47.3,3.85.87.64.27,1.57.67,2.74,1.06,6.12,1.59,18.27-.12,19.38-1.02,1.11-.91-3.88-2.53-10.04-2.43-6.17.1-3.6,3.74-9.46-.61-5.86-4.35-15.57,5.76-18.09-1.11-1.07-2.91-4.21-11.68-5.86-16.48-1.11-3.23-6.57-7.13-6.57-5.56,0,3.03-.3,7.18,3.23,13.65,3.54,6.47,6.38,11.08,7.18,15.97.8,4.89,4.65,10.51,6.67,11.52,2.02,1.01.81-5.76,0-8.29-.81-2.53-1.62-4.85,1.92-6.87Z"/>
  <path class="st0" d="M46.39,121.97c-.35,2.63.43,4.12-.71,3.76s-7.81-1.77-11.57-3.98c-3.76-2.2-8.73-5.4-10.79-7.03-2.06-1.63-3.41-2.56-3.41-1.77s-.85,1.7.36,2.77c1.21,1.06,9.94,6.32,14.41,8.59,4.47,2.27,10.65,2.2,10.72,3.55s-.64,7.38-.78,9.37c-.14,1.99-.99,1.7-1.56,1.77-2.76.34-13.13-6.18-16.54-8.59-3.41-2.41-9.23-6.1-10.65-8.31-1.42-2.2-.92-1.63,0-4.33.92-2.7,3.19-7.67,3.83-8.87.64-1.21.21,0,1.85,1.28,1.63,1.28,6.67,5.39,11.07,6.96s10.08,2.27,11.85,2.41c1.77.14,2.27-.21,1.92,2.41Z"/>
  <path class="st1" d="M46.83,105.8c-.51,1.53-.36,1.93-1.16,2.6-.8.67-1.38,1.54-.8,1.54s1.74-1.16,1.96.65-.09,2.11-1.1,4.07c-1.01,1.96.23,1.53-1.59,1.67s-5.3-.15-10.46-2.47c-5.16-2.32-8.57-4.87-9.74-6.83-1.16-1.96.22-5.52-.36-7.7-.58-2.18-.09-14.17-.12-22.74-.03-8.57-.68-15.04.19-18.24.87-3.2,5.38-16.56,7.7-21.87,2.32-5.3,7.85-16.35,10.17-19.04s2.98-4.07,3.85-6.61c.87-2.54,1.02-5.3,2.4-5.16,1.38.15,2.18.36,3.12,2.69.94,2.32-.22,4.58-2.25,9.15-2.03,4.58-6.79,13-8.04,15.55-1.26,2.54-2.05,3.92-2.64,6.1-.58,2.18-4.43,9.3-4.94,11.48-.51,2.18-1.31,2.62-2.18,5.45-.87,2.83-2.03,7.12-1.38,7.99.65.87,1.45.73,2.47-.65,1.02-1.38.29-3.12,1.16-5.81.87-2.69,2.71-10.03,4.12-12.13,1.4-2.11,1.88-3.12,3.39-4.72,1.51-1.6,8.77-6.83,12.48-11.12,3.71-4.29,8.86-7.92,10.61-9.59,1.74-1.67,3.27-3.49,3.92-3.12.65.36,1.31,1.6,1.31,3.56s1.45,3.34-.29,4.65c-1.74,1.31-7.05,4.86-10.32,7.12-2.83,1.96-9.76,7.77-11.97,10.1-2.2,2.32-3.8,4.87-5.03,9.23-1.24,4.36-2.83,9.15-3.27,10.68-.44,1.53-.8,2.4.07,2.54.87.15,2.69-2.25,2.91-4.14.22-1.89,1.09-5.74,2.11-7.99,1.02-2.25,2.25-5.59,4.72-7.99,2.47-2.4,5.96-6.47,6.97-6.47s2.03.29,4.72,3.34c2.69,3.05,4,3.85,5.96,5.88,1.96,2.03,3.85,1.74,4.36,5.88.51,4.14.94,5.23.65,10.03-.29,4.8-.65,5.3-.65,6.68s-.29,1.96-2.18,1.74c-1.89-.22-3.71.94-3.85-3.12-.15-4.07-.15-5.96.36-8.5.51-2.54.65-2.54,0-4.94-.65-2.4-1.6-4.21-2.54-4.65-.94-.44-1.02.73-2.03-.36-1.02-1.09-1.16-1.96-1.89-1.96s-1.16.65-1.38-.36c-.22-1.02-.44-1.74-1.16-1.67-.73.07-1.74-.44-3.34,2.98s-2.69,4.36-3.92,6.97c-1.24,2.62-2.11,4.72-2.47,7.48-.36,2.76-1.31,5.09.36,5.59,1.67.51,2.11,1.38,1.96-1.74-.15-3.12.44-5.01,1.24-8.14.8-3.12,2.25-5.67,3.63-6.61,1.38-.94,1.38-.15,2.62.58,1.24.73,2.47-.65,4.07-.22,1.6.44,1.96,1.31,1.96,3.85s.15,5.38.15,9.52.87,6.68-.36,6.68-1.09.51-2.47-1.24c-1.38-1.74-2.32-4.29-2.32-7.27s1.02-4.65.29-5.3c-.73-.65-1.16-.8-2.03-.44-.87.36-.65.58-1.31,3.85-.65,3.27-.87,3.05,0,5.52.87,2.47,1.74,2.98,1.74,5.74s0,8.57-.65,12.21c-.65,3.63-3.34,9.31-4.87,13.74-1.53,4.42-2.62,5.8-2.62,5.8Z"/>
</svg>