<svg width="200" height="200" viewBox="0 0 200 200" fill="none" xmlns="http://www.w3.org/2000/svg">
<path d="M100 175C58.64 175 25 141.35 25 100C25 58.65 58.64 25 100 25C141.36 25 175 58.64 175 100C175 141.36 141.36 175 100 175ZM100 26.82C59.65 26.82 26.82 59.65 26.82 100C26.82 140.35 59.65 173.18 100 173.18C140.35 173.18 173.18 140.35 173.18 100C173.18 59.65 140.35 26.82 100 26.82ZM37.25 95.14C38.69 95.37 40.67 95.69 42.35 94.79C43.5 94.16 44.45 92.64 44.72 91C44.95 89.59 44.71 88.21 44.08 87.32C43.31 86.2 42.19 85.37 39.04 84.69C38.56 84.59 38 84.47 37.46 84.35C36.24 84.09 35.08 83.85 34.92 83.79C33.94 83.51 33.85 83.39 33.75 82.36C33.69 81.89 33.47 81.65 33.3 81.62C33.05 81.58 32.87 81.79 32.8 82.2C32.77 82.41 32.73 82.75 32.69 83.14C32.64 83.62 32.59 84.16 32.52 84.56C32.45 85.01 32.38 85.32 32.32 85.59C32.28 85.78 32.24 85.95 32.21 86.12C32.13 86.59 32.31 86.88 32.51 86.91C32.53 86.91 32.54 86.91 32.56 86.91C32.74 86.91 32.98 86.77 33.13 86.36C33.6 85.07 33.86 84.99 36.15 85.36C37.43 85.57 39.63 85.96 40.47 86.22C43.26 87.02 43.59 88.8 43.38 90.15C43.23 91.09 42.61 92.14 41.94 92.58C41.34 92.98 40.64 93.32 38.62 93.1C36.53 92.86 34.69 92.57 33.68 92.33C32.61 92.08 32.47 91.91 32.41 90.89C32.4 90.56 32.24 90.17 32 90.13C31.91 90.12 31.82 90.14 31.75 90.19C31.61 90.29 31.52 90.49 31.47 90.79C31.45 90.89 31.44 91.05 31.42 91.25C31.38 91.6 31.33 92.09 31.24 92.66C31.19 93 31.09 93.44 30.99 93.87C30.9 94.3 30.81 94.7 30.76 95.01C30.7 95.41 30.68 95.72 30.79 95.88C30.84 95.95 30.91 95.99 31 96.01C31.02 96.01 31.05 96.02 31.07 96.02C31.29 96.02 31.48 95.84 31.64 95.47C31.98 94.75 32.12 94.45 32.94 94.54L33.16 94.56C33.98 94.65 35.36 94.8 37.21 95.09L37.25 95.14ZM35.67 74.22C35.91 74.35 36.29 74.21 36.53 73.91C36.94 73.43 37.31 73.14 37.63 73.05C38.29 72.82 38.64 72.88 38.82 72.98C39.37 73.27 44.42 76.17 45.6 76.91C46.36 77.39 46.67 77.73 46.37 78.97C46.28 79.37 46.35 79.66 46.56 79.77C46.61 79.8 46.66 79.81 46.7 79.81C46.78 79.81 46.86 79.78 46.94 79.72C47.05 79.64 47.16 79.5 47.25 79.32C47.29 79.24 47.37 79.06 47.48 78.81C47.68 78.37 47.97 77.7 48.27 77.15C48.4 76.91 48.53 76.7 48.67 76.49C48.81 76.27 48.95 76.05 49.09 75.79C49.19 75.61 49.27 75.34 49.21 75.15C49.19 75.07 49.14 75.01 49.07 74.97C48.77 74.81 48.52 74.97 48.15 75.31C47.34 76.09 47.09 76.09 45.49 75.3C44.96 75.04 42.97 74.05 42.17 73.62C41.59 73.31 41.09 73 40.72 72.78C40.59 72.7 40.47 72.63 40.36 72.56C40.27 72.51 40.23 72.45 40.23 72.41C40.23 72.4 40.23 72.38 40.26 72.37C41.55 72.04 47.24 70.71 48.47 70.44C49.28 70.24 50.98 69.92 51.9 69.8C52.37 69.75 52.82 69.48 52.93 69.27C52.99 69.17 53 69.07 52.97 68.97C52.91 68.76 52.66 68.55 52.18 68.29C51.75 68.06 51.23 67.8 50.73 67.55C50.24 67.31 49.74 67.05 49.35 66.84C47.67 65.94 43.89 63.75 43.3 63.39C42.91 63.13 42.8 62.73 42.92 62.05C43.05 61.34 42.98 61.15 42.81 61.06C42.63 60.96 42.32 61.08 42.1 61.49C42.02 61.64 41.9 61.92 41.75 62.23C41.55 62.68 41.3 63.24 41.06 63.68C40.95 63.89 40.88 64.01 40.8 64.15C40.7 64.32 40.59 64.51 40.38 64.91C40.16 65.33 40.23 65.61 40.39 65.7C40.43 65.72 40.77 65.88 41.17 65.39C42.08 64.32 42.31 64.43 43.81 65.12L43.87 65.15C45.36 65.83 48.39 67.55 48.74 67.81C48.78 67.84 48.79 67.9 48.79 67.95C48.79 67.98 48.78 67.99 48.78 67.99C48.19 68.2 45.59 68.83 43.5 69.34C42.29 69.63 41.25 69.89 40.7 70.03C39.38 70.37 38.14 70.63 37.67 70.66C37.67 70.66 37.26 70.79 37.18 70.93C37.02 71.24 36.73 71.71 36.43 72.2C36.11 72.72 35.79 73.26 35.58 73.64C35.48 73.9 35.5 74.13 35.67 74.22ZM49.05 54.52C50.15 53.84 50.34 53.88 51.61 55.1L53.84 57.23C55.06 58.4 56.96 60.3 57.23 60.65C57.47 60.99 57.51 61.2 57.05 62.18C56.93 62.45 56.88 62.81 57.05 62.97C57.1 63.01 57.16 63.04 57.24 63.04H57.25C57.41 63.04 57.62 62.93 57.77 62.78C57.88 62.67 58.08 62.42 58.31 62.15C58.63 61.77 59.02 61.3 59.31 61C59.62 60.67 60.21 60.11 60.63 59.7C60.85 59.48 61.03 59.31 61.08 59.26C61.19 59.14 61.36 58.88 61.36 58.65C61.36 58.56 61.33 58.48 61.27 58.42C61.18 58.34 60.97 58.24 60.51 58.52C59.47 59.19 59.18 59.2 58.45 58.56C58.4 58.51 58.31 58.43 58.18 58.31C57.78 57.94 57.04 57.24 55.82 56.07C55.58 55.84 55.31 55.58 55.03 55.31C54.11 54.44 53.07 53.45 52.63 52.98C51.91 52.21 51.79 52.03 52.39 51C52.49 50.82 52.58 50.5 52.41 50.34C52.23 50.17 51.9 50.27 51.71 50.46C51.54 50.64 51.38 50.83 51.19 51.05C50.92 51.37 50.58 51.76 50.07 52.29C49.69 52.69 49.31 53.05 49 53.34C48.81 53.52 48.64 53.68 48.53 53.8C48.37 53.97 48.25 54.24 48.25 54.42C48.25 54.49 48.27 54.54 48.31 54.58C48.44 54.7 48.7 54.75 49.05 54.52ZM58.76 45.28C59.8 45.02 60.01 45.1 60.51 45.41C61.39 45.96 66.73 49.92 67.6 50.6C68.33 51.16 69.15 51.85 69.54 52.18C69.62 52.25 69.68 52.3 69.72 52.33C69.87 52.46 70.05 52.54 70.2 52.54C70.27 52.54 70.34 52.52 70.4 52.49C70.64 52.34 70.74 51.85 70.7 51.59C70.68 51.45 70.61 51.13 70.51 50.69C70.39 50.17 70.25 49.53 70.12 48.88C69.57 45.59 69.08 42.11 68.98 40.78C68.92 39.87 68.92 39.27 69.56 38.63C69.82 38.34 70.07 38.01 69.92 37.77C69.88 37.7 69.8 37.65 69.71 37.63C69.54 37.59 69.31 37.65 69.07 37.8C68.79 37.97 68.57 38.13 68.35 38.29C68.11 38.46 67.86 38.64 67.52 38.86C67.19 39.07 66.91 39.22 66.66 39.36C66.47 39.47 66.28 39.57 66.11 39.68C65.69 39.94 65.53 40.22 65.67 40.45C65.77 40.61 66.08 40.67 66.46 40.6C67.47 40.35 67.59 40.41 67.83 41.38C68.14 42.73 68.75 46.49 69.06 48.68C69.06 48.71 69.06 48.76 69.03 48.78C69.01 48.8 68.96 48.79 68.9 48.77C68.32 48.54 63.05 44.53 62.59 44.04C62.18 43.6 62.28 43.4 62.63 42.99C62.91 42.68 63.02 42.37 62.91 42.2C62.84 42.09 62.72 42.02 62.57 42.02C62.56 42.02 62.56 42.02 62.55 42.02C62.4 42.02 62.23 42.07 62.06 42.18C61.84 42.32 61.59 42.48 61.34 42.65C61.03 42.85 60.72 43.06 60.38 43.27C60.05 43.48 59.67 43.68 59.3 43.87C58.95 44.06 58.62 44.23 58.33 44.41C58.1 44.55 57.93 44.75 57.89 44.92C57.87 45 57.88 45.07 57.92 45.13C58.04 45.32 58.31 45.37 58.76 45.28ZM77.8 35.3C78.53 35.3 78.88 35.41 79.08 35.93C79.21 36.26 79.97 38.87 80.84 42.09C81.18 43.35 81.3 43.86 81.43 44.48C81.56 45.16 81.43 45.42 80.24 46.09C79.84 46.31 79.65 46.59 79.72 46.86C79.75 46.95 79.83 47.04 80.07 47.04C80.2 47.04 80.36 47.02 80.59 46.95C80.98 46.84 81.5 46.68 82.05 46.51C82.72 46.3 83.47 46.06 84.16 45.87C86.66 45.19 87.74 44.95 88.39 44.8C88.69 44.73 88.91 44.68 89.14 44.62C89.23 44.6 89.67 44.32 89.71 44.01C89.72 43.96 89.91 42.71 89.87 42.05C89.86 41.76 89.77 41.36 89.57 41.22C89.5 41.17 89.41 41.15 89.32 41.18C89.07 41.25 88.99 41.51 88.84 41.99C88.82 42.06 88.79 42.13 88.77 42.21C88.53 42.94 88.32 43.39 87.85 43.68C87.45 43.93 87.18 44.05 86.42 44.26C84.69 44.73 84.18 44.51 84.08 44.46C84.01 44.43 83.82 44.12 83.61 43.53L83.58 43.45C83.44 43.01 83.2 42.27 82.77 40.72C82.73 40.55 82.74 40.31 82.8 40.21C82.81 40.19 82.82 40.18 82.84 40.17C83.73 39.93 84.23 39.79 85.06 39.63C85.46 39.57 85.64 39.71 85.98 40.18C86.24 40.56 86.52 40.65 86.68 40.6C86.76 40.58 86.84 40.51 86.88 40.42C86.94 40.31 86.99 40.1 86.86 39.76C86.73 39.45 86.58 38.9 86.46 38.46C86.37 38.14 86.32 37.82 86.27 37.58L86.25 37.45C86.18 37.08 86.06 36.84 85.9 36.74C85.82 36.69 85.72 36.67 85.63 36.7C85.41 36.76 85.31 36.98 85.27 37.43C85.21 38.03 85.06 38.33 83.81 38.74C83.5 38.85 82.71 39.04 82.51 39.07C82.41 39.09 82.26 38.82 82.21 38.63L82.2 38.6C81.82 37.22 81.36 35.5 81.27 34.95C81.26 34.85 81.33 34.63 81.36 34.6C81.45 34.58 81.68 34.51 81.98 34.41C82.59 34.23 83.51 33.95 84.27 33.74C84.36 33.72 84.7 33.75 85.13 34.23C85.77 34.96 86.06 35.16 86.31 35.09C86.53 35.03 86.62 34.68 86.54 34.42C86.43 34 85.86 32.61 85.67 32.42C85.52 32.29 85.35 32.27 85.11 32.35C85.01 32.38 84.91 32.42 84.79 32.46C84.37 32.6 83.72 32.82 82.34 33.19L80.28 33.75C79.4 34 78.56 34.18 78 34.3C77.72 34.36 77.51 34.41 77.4 34.44C77.1 34.52 76.83 34.73 76.9 34.99C76.94 35.15 77.18 35.3 77.54 35.3C77.62 35.3 77.72 35.3 77.8 35.3ZM100.3 43.68C100.31 43.68 100.31 43.68 100.32 43.68C100.68 43.68 101.06 43.52 101.06 43.25C101.06 42.97 100.83 42.84 100.45 42.72C99.52 42.44 99.29 42.21 99.24 41.51C99.19 40.82 99.18 39.87 99.21 38.14C99.21 38.07 99.32 37.88 99.45 37.88C100.09 37.89 100.54 37.94 100.99 38.59C101.07 38.72 101.19 38.89 101.32 39.1C101.84 39.9 102.63 41.1 103.21 41.88C104.66 43.85 105.93 44.03 107 44.05C107.01 44.05 107.02 44.05 107.02 44.05C107.17 44.05 107.46 44.03 107.73 43.96C108.16 43.84 108.25 43.65 108.26 43.51C108.26 43.37 108.16 43.2 107.92 43.13C107.14 42.92 106.57 42.6 105.59 41.5C104.7 40.44 103.3 38.21 102.99 37.56C102.94 37.48 102.97 37.3 102.99 37.28C103.23 37.18 104.07 36.65 104.26 36.49C104.87 35.94 105.27 35.07 105.28 34.28C105.3 33.19 104.89 32.34 104.02 31.66C103.53 31.28 102.73 30.84 100.88 30.81C100.33 30.8 99.83 30.82 99.34 30.84C98.9 30.86 98.48 30.87 98.06 30.87L96.26 30.84C96.01 30.84 95.81 30.86 95.66 30.92C95.47 30.99 95.38 31.12 95.37 31.29C95.37 31.5 95.65 31.72 96 31.78C96.72 31.92 97.03 32.15 97.06 32.56C97.1 33.02 97.12 33.78 97.08 36.28C97.02 39.97 97.01 40.63 96.98 41.38C96.92 42.4 96.68 42.48 95.88 42.72C95.45 42.86 95.24 43.01 95.24 43.21C95.24 43.47 95.55 43.64 96.05 43.64C96.45 43.65 96.77 43.63 97.07 43.61C97.35 43.59 97.61 43.58 97.91 43.58C98.31 43.59 98.83 43.62 99.29 43.65C99.7 43.66 100.06 43.68 100.3 43.68ZM100.3 31.73C100.31 31.73 100.31 31.73 100.32 31.73C101.25 31.74 101.97 32.03 102.45 32.58C102.86 33.06 103.08 33.71 103.06 34.47C103.05 35.35 102.64 36.04 102.37 36.28C101.99 36.61 100.88 36.96 100.58 36.96C100.58 36.96 100.58 36.96 100.57 36.96C100.11 36.95 99.75 36.89 99.36 36.76C99.3 36.74 99.23 36.66 99.24 36.56C99.24 35.59 99.23 33.31 99.27 32.24C99.27 32.07 99.39 31.91 99.47 31.88C99.64 31.81 100.07 31.73 100.3 31.73ZM118.76 46.83C119.18 46.83 119.58 46.79 119.91 46.7C120.83 46.45 121.96 45.74 122.36 44.52C123 42.54 121.87 41.11 120.33 39.44C118.98 37.95 118.69 37.21 119.05 36.11C119.2 35.66 119.53 35.26 119.98 35.02C120.45 34.77 120.98 34.72 121.49 34.88C122.69 35.27 123.28 36.17 123.27 37.55C123.26 37.69 123.28 38.12 123.49 38.18C123.8 38.28 124.08 38.06 124.24 37.59C124.29 37.43 124.37 37.1 124.45 36.78C124.52 36.49 124.58 36.21 124.62 36.1C124.69 35.88 124.69 35.49 124.54 35.41C124.42 35.33 124.29 35.25 124.15 35.16C123.58 34.79 122.93 34.36 122.16 34.11C121.25 33.82 120.26 33.75 119.45 33.93C118.72 34.12 117.43 34.65 116.95 36.14C116.32 38.08 117.36 39.61 118.47 40.85C120.2 42.86 120.37 43.61 120.1 44.44C119.67 45.75 118.38 45.98 117.6 45.73C116.99 45.53 115.56 44.83 115.32 42.58L115.31 42.5C115.26 42.2 115.21 41.93 114.93 41.84C114.86 41.82 114.78 41.83 114.7 41.87C114.53 41.96 114.38 42.17 114.29 42.45C114.12 42.97 113.95 43.78 114.01 44.38C114.04 44.65 114.14 44.8 114.21 44.9C114.56 45.39 115.91 46.2 116.93 46.53C117.44 46.74 118.12 46.83 118.76 46.83ZM137.86 43.08C138.06 43.14 138.39 43.16 138.51 42.96C138.56 42.89 138.57 42.8 138.54 42.7C138.5 42.55 138.39 42.39 138.25 42.31C138.04 42.18 137.82 42.06 137.56 41.92C137.19 41.72 136.73 41.47 136.11 41.09C135.64 40.8 135.2 40.51 134.85 40.27C134.63 40.12 134.44 39.99 134.31 39.91C134.07 39.76 133.62 39.68 133.5 39.86C133.41 40.01 133.41 40.28 133.71 40.58C134.6 41.51 134.6 41.7 133.68 43.2L132.06 45.82C131.17 47.26 129.71 49.51 129.43 49.85C129.15 50.16 128.95 50.24 127.89 50C127.61 49.94 127.24 49.97 127.12 50.16C127.09 50.22 127.08 50.29 127.1 50.37C127.14 50.53 127.29 50.71 127.46 50.82C127.59 50.9 127.87 51.04 128.19 51.21C128.63 51.44 129.18 51.73 129.54 51.95C129.93 52.19 130.6 52.64 131.09 52.98C131.34 53.15 131.54 53.29 131.61 53.33C131.74 53.41 131.95 53.49 132.14 53.49C132.28 53.49 132.4 53.45 132.46 53.34C132.52 53.24 132.58 53 132.21 52.62C131.33 51.74 131.27 51.46 131.74 50.62C131.78 50.55 131.85 50.43 131.97 50.24C132.25 49.77 132.78 48.9 133.62 47.53C133.8 47.24 134 46.91 134.21 46.57C134.86 45.5 135.61 44.29 135.97 43.76C136.58 42.86 136.73 42.71 137.86 43.08ZM139.97 60.18C140.25 60.46 140.6 60.8 141.04 61.29C141.64 61.94 142.32 62.76 142.73 63.24C142.89 63.43 143 63.56 143.04 63.61C143.24 63.82 143.46 63.94 143.63 63.94C143.71 63.94 143.79 63.91 143.85 63.86C144.06 63.67 143.94 63.37 143.79 63L143.73 62.86C143.38 61.97 143.26 61.67 144.21 60.66C144.85 59.98 145.92 59 146.77 58.21C146.94 58.06 147.1 57.91 147.25 57.77C148.26 56.84 150.12 55.19 150.52 54.89C150.62 54.82 150.81 54.84 150.84 54.87C152.18 56.33 152.6 56.86 152.74 57.05C153.07 57.5 153.25 57.9 152.46 59.01C152.31 59.23 152.21 59.52 152.37 59.7C152.57 59.91 152.95 59.88 153.22 59.63C153.99 58.92 154.79 58.38 155.17 58.12C155.3 58.03 155.38 57.98 155.41 57.95C155.56 57.81 155.49 57.35 155.42 57.28C155.33 57.18 155.15 57.17 154.88 57.14L154.79 57.13C154.57 57.11 154.27 56.92 153.46 56.04L148.77 50.95C148.41 50.55 148.41 50.55 148.12 50.21L147.88 49.92C147.49 49.47 147.4 49.25 147.4 48.83C147.37 48.62 147.35 48.49 147.3 48.43C147.24 48.36 147.04 48.29 146.87 48.29C146.76 48.29 146.67 48.32 146.62 48.38C146.17 48.83 145.69 49.19 145.27 49.51C145.04 49.68 144.83 49.84 144.66 49.99C144.38 50.21 144.23 50.41 144.22 50.59C144.21 50.7 144.25 50.81 144.34 50.91C144.47 51.05 144.78 51.04 145.14 50.88C146.12 50.48 146.83 50.47 147.18 50.85C147.27 50.95 147.58 51.28 147.92 51.66C148.36 52.15 148.86 52.7 149.05 52.91C149.07 52.95 149.01 53.17 148.85 53.32L146.81 55.2C145.22 56.66 143.9 57.84 143.19 58.47C142.9 58.73 142.7 58.91 142.61 58.99C141.63 59.9 141.34 59.71 140.14 58.94L140.11 58.92C139.74 58.71 139.45 58.66 139.31 58.79C139.1 58.99 139.15 59.3 139.45 59.63C139.6 59.81 139.77 59.98 139.97 60.18ZM150.98 70.97C150.37 70.97 149.91 70.81 149.26 70.05C148.9 69.62 148.62 69.62 148.45 69.7C148.23 69.8 148.22 70.12 148.42 70.55C148.6 70.93 148.76 71.21 148.91 71.48C149.05 71.73 149.19 71.97 149.33 72.27C149.49 72.62 149.67 73.05 149.8 73.37C149.88 73.57 149.95 73.73 149.98 73.81C150.2 74.29 150.57 74.39 150.76 74.3C150.97 74.2 150.96 73.92 150.93 73.66C150.8 72.7 151.02 72.52 151.25 72.41C151.59 72.25 152.96 72.11 153.78 72.02L153.98 72H153.99C154.09 72 154.3 72.08 154.34 72.15C154.61 72.61 155.44 74.4 155.74 75.08L155.85 75.32C155.94 75.56 155.88 75.81 155.81 75.89C155.24 76.49 154.44 77.33 154.01 77.68C153.49 78.11 153.32 78.14 152.69 77.44C152.35 77.07 152.06 77.15 151.95 77.2C151.89 77.23 151.84 77.28 151.81 77.36C151.76 77.51 151.79 77.72 151.89 77.94C152.02 78.23 152.12 78.39 152.21 78.57C152.32 78.77 152.44 78.98 152.64 79.42C152.86 79.89 153.04 80.34 153.21 80.78C153.39 81.22 153.57 81.68 153.79 82.15C153.91 82.41 154.08 82.57 154.23 82.57C154.26 82.57 154.28 82.56 154.31 82.55C154.43 82.5 154.69 82.3 154.64 81.67C154.52 80.54 154.53 80.36 155.32 79.52C158 76.71 160.3 74.34 161.8 72.86C162.09 72.57 162.35 72.33 162.55 72.14C163.12 71.61 163.33 71.41 163.24 71.23C163.2 71.14 162.99 70.97 162.82 70.91C162.56 70.8 162.1 70.53 161.88 70.4C161.83 70.36 161.64 70.33 161.57 70.36C161.44 70.41 161.26 70.44 161.02 70.48C158.09 70.69 152.82 70.99 151.16 70.99C151.12 70.97 151.05 70.97 150.98 70.97ZM155.67 72.04C155.66 71.99 155.66 71.96 155.68 71.92C155.7 71.88 155.74 71.86 155.76 71.86C157.12 71.72 158.96 71.56 160.04 71.49C160.08 71.5 160.12 71.53 160.14 71.57C160.15 71.6 160.14 71.62 160.12 71.65C159.9 71.93 157.93 74.03 157.09 74.72L157.08 74.73C157.07 74.75 157.03 74.76 156.99 74.76C156.95 74.76 156.92 74.75 156.92 74.74C156.73 74.41 155.79 72.36 155.67 72.04ZM168.94 91.21C168.81 90.26 168.44 89.35 167.92 88.69C167.44 88.12 166.39 87.19 164.84 87.4C162.82 87.68 161.89 89.28 161.26 90.82C160.2 93.25 159.6 93.74 158.73 93.86C157.36 94.05 156.59 92.99 156.48 92.17C156.3 90.86 156.99 89.58 158.32 88.75L158.39 88.7C158.64 88.52 158.86 88.37 158.82 88.07C158.81 88 158.77 87.93 158.69 87.87C158.54 87.76 158.28 87.71 157.99 87.75C157.56 87.81 156.69 88 156.13 88.34C155.9 88.48 155.81 88.63 155.75 88.74C155.46 89.27 155.32 90.84 155.46 91.9C155.59 92.84 156.1 94.03 156.64 94.67C157.2 95.32 158.17 95.95 159.28 95.95C159.41 95.95 159.54 95.94 159.68 95.92C161.74 95.64 162.54 94 163.37 91.88C164.12 90.02 164.67 89.43 165.81 89.28C166.95 89.13 167.84 90.01 167.97 90.94C168.14 92.19 167.59 93.12 166.34 93.7C166.21 93.75 165.84 93.95 165.87 94.17C165.89 94.33 165.98 94.45 166.14 94.53C166.29 94.6 166.49 94.62 166.73 94.59C166.9 94.57 167.23 94.49 167.56 94.42C167.85 94.36 168.12 94.3 168.23 94.28C168.45 94.25 168.81 94.07 168.81 93.91C168.83 93.76 168.85 93.61 168.87 93.46C168.95 92.78 169.05 92.01 168.94 91.21ZM42.76 124.38C42.76 124.31 42.86 124.24 42.9 124.23C43.19 124.51 43.77 124.98 44.02 125.07C44.63 125.31 45.24 125.31 45.89 125.06C46.72 124.75 47.35 124.07 47.62 123.19C47.88 122.4 47.76 121.18 47.29 119.94C47.01 119.19 46.69 118.47 46.4 117.84C46.2 117.39 46.02 116.99 45.91 116.7L45.49 115.6C45.3 115.1 45.05 114.87 44.82 114.96C44.57 115.05 44.49 115.4 44.56 115.66C44.81 116.8 44.65 116.98 44.08 117.25C43.54 117.52 41.71 118.21 40.62 118.62C36.89 120.03 36.44 120.14 36.12 120.22L36.04 120.24C35.07 120.53 34.86 120.2 34.39 119.49L34.38 119.47C34.1 119.05 33.85 118.79 33.54 118.9C33.28 119 33.28 119.4 33.4 119.74C33.45 119.88 33.52 120.03 33.59 120.2C33.72 120.49 33.86 120.82 34 121.23C34.1 121.5 34.2 121.82 34.31 122.15C34.52 122.79 34.75 123.51 35.05 124.31C35.43 125.3 35.97 126.25 36.49 126.84C37.02 127.44 38.01 128.28 39.37 128.28C39.78 128.28 40.22 128.21 40.7 128.03C42.36 127.41 42.84 125.67 42.76 124.38ZM42.84 122.97C42.61 122.79 42.09 122.03 41.73 121.05C41.64 120.8 41.64 120.55 41.73 120.48C42.08 120.28 44.2 119.48 45.51 119.05C45.55 119.04 45.59 119.03 45.63 119.03C45.72 119.03 45.78 119.07 45.83 119.12C45.89 119.18 46.06 119.45 46.14 119.66C46.46 120.51 46.49 121.28 46.22 121.89C45.99 122.43 45.54 122.84 44.93 123.07C43.79 123.52 43.02 123.14 42.84 122.97ZM39.68 125.84C39.21 126.02 38.64 126.09 37.99 126.04C37.6 126.01 36.48 125.36 36.12 124.41C36 124.08 36.04 122.88 36.66 122.49C37.22 122.13 39.76 121.14 40.18 121.07C40.23 121.06 40.29 121.05 40.34 121.05C40.52 121.05 40.68 121.11 40.7 121.13C40.76 121.18 41 121.65 41.11 121.93C41.63 123.36 41.54 125.14 39.68 125.84ZM57.88 138.06C57.95 137.87 57.9 137.7 57.72 137.52C57.65 137.44 57.58 137.36 57.5 137.27C57.2 136.93 56.76 136.43 55.87 135.3L54.56 133.62C54.01 132.91 53.52 132.21 53.19 131.75C53.02 131.5 52.89 131.32 52.82 131.23C52.68 131.05 52.51 130.94 52.36 130.92C52.27 130.91 52.19 130.93 52.12 130.99C51.98 131.1 51.94 131.4 52.11 131.76C52.47 132.55 52.54 132.95 52.11 133.37C51.86 133.62 49.75 135.33 47.12 137.39C46.09 138.19 45.67 138.5 45.15 138.86C44.57 139.24 44.28 139.22 43.2 138.38C42.84 138.1 42.51 138.03 42.29 138.2C42.25 138.23 42.22 138.28 42.21 138.34C42.19 138.5 42.3 138.73 42.54 139.04C42.79 139.36 43.14 139.77 43.51 140.21C43.96 140.74 44.48 141.35 44.92 141.91C46.52 143.95 47.17 144.86 47.55 145.4C47.73 145.65 47.86 145.83 48 146.02C48.06 146.09 48.39 146.32 48.66 146.32C48.7 146.32 48.74 146.32 48.78 146.3C48.83 146.29 50.06 145.97 50.65 145.68C50.92 145.55 51.25 145.32 51.3 145.08C51.32 144.99 51.3 144.91 51.25 144.83C51.09 144.62 50.81 144.65 50.32 144.7C50.25 144.71 50.17 144.71 50.09 144.72C49.33 144.78 48.83 144.76 48.38 144.44C47.99 144.16 47.78 143.98 47.29 143.34C46.18 141.93 46.19 141.37 46.2 141.26C46.2 141.19 46.41 140.88 46.87 140.47L46.95 140.4C47.3 140.1 47.89 139.59 49.14 138.61C49.33 138.46 49.62 138.4 49.66 138.45L49.67 138.46C50.24 139.19 50.55 139.59 51.02 140.29C51.24 140.63 51.17 140.86 50.87 141.35C50.62 141.74 50.65 142.03 50.75 142.16C50.8 142.23 50.89 142.27 50.99 142.28C51.11 142.29 51.32 142.25 51.59 142.01C51.82 141.78 52.25 141.44 52.6 141.16L52.63 141.14C52.89 140.94 53.16 140.76 53.37 140.63L53.48 140.56C53.79 140.35 53.97 140.15 54 139.97C54.02 139.87 53.99 139.78 53.93 139.7C53.79 139.52 53.55 139.51 53.11 139.65C52.54 139.83 52.2 139.8 51.34 138.81C51.12 138.56 50.64 137.91 50.53 137.74C50.52 137.73 50.52 137.71 50.52 137.69C50.53 137.57 50.71 137.38 50.83 137.28C51.96 136.39 53.38 135.28 53.85 134.99C53.94 134.95 54.17 134.92 54.2 134.94C54.26 135.01 54.41 135.19 54.61 135.43C55.02 135.92 55.64 136.67 56.13 137.29C56.19 137.36 56.29 137.7 56.01 138.27C55.58 139.15 55.5 139.48 55.67 139.7C55.81 139.88 56.16 139.83 56.38 139.65C56.72 139.38 57.78 138.32 57.88 138.06ZM68.44 146.73C67.98 146.42 67.56 146.17 67.14 145.93C66.76 145.7 66.4 145.49 66.04 145.25L64.54 144.25C64.33 144.11 64.15 144.02 64 143.99C63.8 143.95 63.65 144 63.56 144.15C63.45 144.32 63.56 144.66 63.82 144.91C64.35 145.42 64.48 145.78 64.29 146.14C64.08 146.54 63.68 147.19 62.29 149.27L62.27 149.29C60.22 152.34 59.86 152.89 59.43 153.49C58.83 154.32 58.58 154.25 57.77 154.02C57.33 153.9 57.07 153.92 56.96 154.08C56.89 154.18 56.9 154.32 56.97 154.46C57.05 154.6 57.2 154.75 57.4 154.89C57.73 155.11 58.01 155.27 58.27 155.42C58.51 155.56 58.74 155.69 58.99 155.86C59.31 156.08 59.73 156.39 60.1 156.66C60.41 156.89 60.71 157.11 60.9 157.24C61.12 157.39 61.38 157.47 61.56 157.42C61.65 157.4 61.72 157.36 61.77 157.29C61.92 157.06 61.8 156.82 61.55 156.51C60.92 155.76 60.86 155.45 61.2 154.83C61.54 154.21 62.05 153.42 63.01 151.99C63.05 151.93 63.24 151.83 63.35 151.91C63.88 152.27 64.23 152.56 64.26 153.34C64.26 153.49 64.26 153.71 64.26 153.96C64.27 154.91 64.28 156.34 64.34 157.31C64.49 159.75 65.45 160.59 66.34 161.19C66.5 161.3 66.99 161.57 67.35 161.57C67.39 161.57 67.43 161.57 67.46 161.56C67.56 161.54 67.64 161.49 67.69 161.42C67.77 161.31 67.77 161.1 67.61 160.91C67.07 160.31 66.76 159.73 66.55 158.27C66.38 156.9 66.42 154.26 66.51 153.55C66.51 153.45 66.63 153.32 66.66 153.32C66.92 153.36 67.91 153.37 68.15 153.34C68.96 153.21 69.77 152.7 70.21 152.04C70.81 151.14 70.93 150.19 70.58 149.15C70.41 148.56 69.98 147.76 68.44 146.73ZM68.25 151.01C67.76 151.74 67.04 152.1 66.68 152.15C66.17 152.22 65.05 151.91 64.8 151.75C64.42 151.5 64.15 151.25 63.9 150.92C63.86 150.87 63.85 150.77 63.91 150.68C65.05 148.9 65.85 147.69 66.28 147.07C66.37 146.94 66.53 146.87 66.62 146.87C66.63 146.87 66.64 146.87 66.65 146.87C66.84 146.9 67.25 147.08 67.44 147.21C68.89 148.19 69.19 149.61 68.25 151.01ZM82.48 156.27C83.62 155.42 84.96 155.16 86.38 155.53C87.43 155.8 88.44 156.52 89.02 157.41C89.38 158 89.54 158.46 89.67 159.06C89.78 159.49 89.92 159.68 90.14 159.74C90.27 159.77 90.4 159.72 90.52 159.58C90.61 159.47 90.67 159.33 90.69 159.23C90.91 158.39 90.82 157.15 90.8 156.74C90.78 156.4 90.71 156.3 90.43 156.18C90.32 156.13 90.22 156.09 90.13 156.06C89.96 155.99 89.81 155.93 89.56 155.79L89.43 155.72C88.69 155.31 88 154.92 86.82 154.61C85.08 154.16 83.02 154.26 81.57 154.87C79.6 155.7 78.29 157.17 77.78 159.12C77.38 160.65 77.46 162.14 78 163.42C78.49 164.59 79.85 166.7 83.49 167.64C84.51 167.9 85.46 167.93 86.22 167.96C86.3 167.96 86.37 167.96 86.44 167.96C86.9 167.96 87.18 167.91 87.45 167.87C87.62 167.84 87.79 167.81 87.99 167.8C87.99 167.8 88 167.8 88.01 167.8C88.17 167.8 88.39 167.59 88.42 167.49C88.46 167.35 88.47 167.25 88.48 167.13L88.49 167.07C88.51 166.84 88.56 166.4 88.78 165.54C88.89 165.1 89.05 164.51 89.21 164.06C89.3 163.79 89.43 163.57 90.09 163.52C90.55 163.47 90.81 163.35 90.85 163.18C90.92 162.91 90.74 162.69 90.35 162.59C90.17 162.54 89.84 162.48 89.46 162.4C89 162.31 88.48 162.21 88.15 162.12C87.81 162.03 87.5 161.94 87.21 161.84C86.93 161.75 86.68 161.67 86.4 161.6C85.93 161.48 85.59 161.62 85.55 161.78C85.48 162.05 85.58 162.29 86.29 162.62C86.96 162.92 87.06 163.12 87.03 163.4C86.98 163.67 86.73 164.71 86.54 165.47C86.36 166.16 85.87 166.66 85.7 166.71C85.22 166.93 84.31 166.77 84.03 166.69C81.08 165.93 79.48 162.92 80.32 159.7C80.66 158.27 81.44 157.05 82.48 156.27ZM110.19 165.49C110.18 165.49 110.17 165.49 110.17 165.49C109.91 165.51 109.78 165.75 109.54 166.19C109.5 166.25 109.47 166.32 109.43 166.4C109.06 167.07 108.76 167.47 108.25 167.67C107.8 167.84 107.53 167.91 106.73 167.97C104.95 168.1 104.48 167.79 104.4 167.72C104.34 167.68 104.21 167.34 104.12 166.72L104.11 166.62C104.05 166.16 103.96 165.39 103.84 163.8C103.83 163.63 103.88 163.39 103.96 163.31C103.97 163.29 103.99 163.28 104 163.28C104.93 163.21 105.44 163.17 106.28 163.17C106.69 163.18 106.84 163.36 107.08 163.89C107.26 164.3 107.5 164.44 107.67 164.44C107.68 164.44 107.68 164.44 107.69 164.44C107.78 164.43 107.86 164.38 107.93 164.3C108.01 164.2 108.09 164.01 108.04 163.65C107.98 163.33 107.93 162.76 107.9 162.31V162.3C107.88 161.97 107.88 161.64 107.88 161.39V161.27C107.88 160.89 107.81 160.64 107.68 160.51C107.61 160.44 107.52 160.41 107.42 160.42C107.2 160.44 107.05 160.63 106.92 161.07C106.75 161.65 106.54 161.92 105.23 162.07C104.92 162.11 104.18 162.15 103.93 162.15C103.91 162.15 103.9 162.15 103.89 162.15C103.79 162.15 103.7 161.86 103.68 161.66C103.57 160.22 103.44 158.43 103.46 157.87C103.47 157.78 103.58 157.57 103.61 157.55C103.71 157.54 103.95 157.52 104.28 157.48C104.91 157.42 105.86 157.32 106.64 157.26H106.65C106.75 157.26 107.07 157.37 107.39 157.9C107.86 158.71 108.1 158.97 108.36 158.97C108.37 158.97 108.38 158.97 108.39 158.97C108.46 158.97 108.54 158.93 108.6 158.86C108.7 158.74 108.76 158.54 108.75 158.36C108.72 157.93 108.43 156.45 108.27 156.23C108.15 156.07 107.98 156.01 107.74 156.06C107.63 156.07 107.52 156.09 107.4 156.1C106.96 156.16 106.29 156.25 104.86 156.35L102.74 156.51C101.84 156.58 100.99 156.59 100.43 156.61C100.13 156.62 99.91 156.62 99.79 156.63C99.49 156.65 99.17 156.8 99.19 157.08C99.2 157.25 99.42 157.46 99.82 157.52C100.68 157.67 101.05 157.83 101.15 158.41C101.21 158.75 101.46 161.46 101.71 164.79C101.81 166.08 101.82 166.61 101.83 167.24C101.82 167.94 101.65 168.17 100.35 168.59C99.91 168.73 99.68 168.97 99.7 169.25C99.71 169.38 99.83 169.52 100.31 169.52C100.38 169.52 100.46 169.52 100.54 169.51C100.94 169.48 101.48 169.42 102.05 169.35C102.74 169.27 103.53 169.18 104.24 169.13C106.83 168.94 107.94 168.91 108.6 168.89C108.91 168.88 109.13 168.88 109.36 168.86C109.45 168.85 109.94 168.67 110.03 168.37C110.05 168.32 110.47 167.13 110.56 166.47C110.6 166.18 110.59 165.78 110.42 165.6C110.34 165.52 110.27 165.49 110.19 165.49ZM131.96 159.04C131.72 158.53 131.49 158.05 131.31 157.64C130.53 155.87 128.92 151.86 128.67 151.19C128.52 150.75 128.68 150.36 129.19 149.9C129.73 149.42 129.79 149.23 129.71 149.05C129.68 148.98 129.61 148.92 129.52 148.88C129.36 148.82 129.13 148.84 128.88 148.95C128.72 149.02 128.45 149.16 128.15 149.32C127.72 149.55 127.17 149.84 126.72 150.04C126.5 150.14 126.37 150.19 126.22 150.25C126.04 150.32 125.84 150.4 125.42 150.59C124.99 150.78 124.87 151.05 124.94 151.22C124.96 151.26 125.13 151.59 125.74 151.46C127.12 151.18 127.23 151.41 127.99 152.88L128.02 152.94C128.77 154.38 130.1 157.61 130.22 158.04C130.23 158.09 130.2 158.14 130.17 158.18C130.15 158.2 130.13 158.21 130.13 158.21C129.53 158.01 127.07 156.9 125.1 156C123.99 155.5 123.02 155.06 122.5 154.84C121.25 154.3 120.11 153.74 119.72 153.46C119.72 153.46 119.31 153.31 119.17 153.37C118.85 153.51 118.34 153.71 117.79 153.91C117.22 154.13 116.63 154.35 116.24 154.52C115.97 154.64 115.85 154.83 115.92 155.01C116.03 155.26 116.41 155.38 116.79 155.29C117.41 155.16 117.88 155.16 118.19 155.29C118.85 155.52 119.09 155.78 119.17 155.97C119.42 156.53 121.61 161.92 122.09 163.25C122.4 164.1 122.43 164.55 121.43 165.35C121.12 165.61 120.99 165.88 121.09 166.1C121.15 166.23 121.27 166.29 121.44 166.29C121.57 166.29 121.74 166.25 121.92 166.17C122.01 166.13 122.18 166.04 122.42 165.91C122.85 165.68 123.49 165.34 124.07 165.08C124.32 164.97 124.55 164.89 124.8 164.8C125.04 164.72 125.29 164.63 125.56 164.51C125.74 164.43 125.98 164.27 126.05 164.08C126.08 164 126.08 163.92 126.05 163.85C125.91 163.54 125.62 163.51 125.11 163.56C124 163.68 123.8 163.52 123.02 161.91C122.78 161.42 121.82 159.39 121.44 158.54C121.17 157.93 120.97 157.38 120.81 156.97C120.76 156.83 120.71 156.7 120.67 156.59C120.63 156.5 120.63 156.43 120.66 156.4C120.66 156.4 120.68 156.38 120.71 156.39C121.95 156.93 127.25 159.39 128.37 159.93C129.13 160.27 130.67 161.07 131.47 161.54C131.87 161.79 132.39 161.86 132.61 161.76C132.93 161.62 132.94 161.25 132.62 160.53C132.45 160.08 132.2 159.55 131.96 159.04ZM141.81 145.52C139.85 145.94 139.06 145.82 138.29 144.97C137.52 144.12 137.75 142.88 138.45 142.25C139.38 141.41 140.46 141.34 141.65 142.04C141.77 142.12 142.14 142.32 142.3 142.17C142.54 141.95 142.49 141.59 142.16 141.23C142.05 141.11 141.8 140.87 141.56 140.64C141.34 140.44 141.14 140.25 141.06 140.16C140.91 139.99 140.57 139.8 140.42 139.88C140.29 139.95 140.15 140.02 140.01 140.09C139.4 140.4 138.71 140.75 138.11 141.29C137.4 141.93 136.85 142.75 136.6 143.55C136.4 144.27 136.21 145.66 137.26 146.82C138.62 148.34 140.47 148.2 142.1 147.87C144.7 147.38 145.44 147.6 146.03 148.25C146.95 149.27 146.51 150.51 145.9 151.06C145.43 151.49 144.1 152.38 142.03 151.46L141.95 151.43C141.66 151.32 141.41 151.23 141.19 151.43C141.04 151.57 141.06 151.91 141.39 152.29C141.68 152.61 142.33 153.23 142.93 153.5C143.11 153.58 143.25 153.59 143.37 153.59C143.41 153.59 143.45 153.59 143.48 153.59C144.08 153.53 145.46 152.77 146.26 152.05C146.96 151.42 147.66 150.33 147.89 149.52C148.13 148.59 148.09 147.26 147.23 146.31C145.83 144.75 144.03 145.01 141.81 145.52ZM158.49 135.61C157.58 136.46 157.3 136.51 156.47 136.01C156.41 135.97 156.29 135.89 156.1 135.77C155.64 135.47 154.78 134.92 153.44 134.02C153.18 133.85 152.88 133.65 152.57 133.45C151.5 132.74 150.28 131.94 149.75 131.55C148.91 130.92 148.76 130.76 149.16 129.64C149.23 129.45 149.26 129.11 149.07 128.98C149 128.93 148.91 128.92 148.81 128.94C148.66 128.97 148.5 129.08 148.41 129.22C148.27 129.43 148.14 129.65 148 129.9C147.79 130.26 147.53 130.71 147.12 131.32C146.82 131.78 146.51 132.2 146.26 132.54C146.1 132.76 145.96 132.95 145.88 133.08C145.73 133.31 145.62 133.76 145.8 133.88C145.95 133.98 146.22 133.98 146.53 133.7C147.49 132.84 147.68 132.85 149.15 133.82L151.72 135.52C153.13 136.45 155.33 137.99 155.66 138.28C155.96 138.57 156.04 138.77 155.76 139.82C155.69 140.1 155.7 140.47 155.9 140.6C155.94 140.62 155.98 140.64 156.04 140.64C156.06 140.64 156.09 140.64 156.11 140.63C156.27 140.6 156.46 140.46 156.57 140.28C156.66 140.15 156.81 139.88 156.99 139.56C157.23 139.13 157.54 138.6 157.77 138.25C158.02 137.87 158.52 137.18 158.85 136.73C159.03 136.48 159.17 136.29 159.21 136.23C159.35 136.02 159.51 135.55 159.25 135.37C159.12 135.32 158.89 135.25 158.49 135.61ZM163.84 117.36C161.87 116.69 160.42 117.8 158.74 119.32C157.23 120.65 156.48 120.93 155.39 120.56C154.94 120.41 154.55 120.06 154.32 119.62C154.08 119.15 154.03 118.61 154.21 118.11C154.6 116.95 155.47 116.37 156.79 116.37C156.83 116.37 156.87 116.37 156.9 116.37C157.08 116.38 157.47 116.36 157.54 116.16C157.65 115.85 157.43 115.57 156.96 115.41C156.8 115.36 156.47 115.27 156.14 115.19C155.85 115.12 155.58 115.05 155.47 115.01C155.25 114.94 154.86 114.93 154.78 115.08C154.7 115.2 154.61 115.33 154.52 115.46C154.14 116.03 153.71 116.67 153.45 117.43C153.14 118.34 153.06 119.32 153.24 120.14C153.42 120.87 153.93 122.17 155.41 122.67C157.34 123.33 158.89 122.31 160.14 121.22C162.17 119.52 162.93 119.36 163.76 119.64C164.5 119.89 164.83 120.39 164.97 120.77C165.14 121.21 165.16 121.73 165.01 122.16C164.58 123.42 163.4 124.25 161.83 124.39L161.74 124.4C161.44 124.45 161.17 124.49 161.08 124.77C161.06 124.84 161.06 124.92 161.1 125C161.18 125.17 161.39 125.32 161.67 125.42C162.03 125.54 162.76 125.73 163.37 125.73C163.45 125.73 163.53 125.73 163.6 125.72C163.87 125.69 164.01 125.6 164.12 125.53C164.62 125.18 165.45 123.85 165.79 122.83C166.1 121.93 166.17 120.64 165.97 119.83C165.75 118.91 165.06 117.77 163.84 117.36ZM87.96 139.25L90.02 140.77L93.77 138.01L84.24 130.99C80.58 128.27 75.47 128.28 71.8 130.99L64.55 136.33C66.93 138.66 69.54 140.75 72.35 142.57C73.19 141.95 75.12 140.53 75.94 139.93C79.23 136.98 84.39 136.52 87.96 139.25ZM106.68 69.96C107.34 70.47 108.25 70.53 109.07 70.16C109.91 69.79 110.47 68.98 110.46 68.08C110.45 67.39 109.79 66.88 109.75 67.29C109.68 68.02 109.31 68.69 108.62 69C107.9 69.32 107.11 69.2 106.52 68.74C106.17 68.48 105.93 69.39 106.68 69.96ZM93.39 69.96C94.13 69.39 93.9 68.48 93.56 68.74C92.97 69.2 92.18 69.33 91.46 69C90.77 68.69 90.4 68.03 90.33 67.29C90.29 66.88 89.63 67.39 89.62 68.08C89.61 68.98 90.16 69.78 91.01 70.16C91.82 70.53 92.73 70.47 93.39 69.96ZM81.28 103.21C82.28 109.51 85.29 118.83 85.49 119.62C85.62 120.13 84.96 121.36 84.63 123.59C84.53 124.25 84.52 124.89 84.59 125.5C84.36 125.64 84.13 125.76 83.92 125.92L81.42 127.76C84.27 128.36 89.09 132.63 91.49 134.24L95.24 137C95.52 136.83 95.81 136.68 96.1 136.55C99.12 135.1 102.92 135.49 105.6 137.5C105.97 137.77 109.56 140.41 110.03 140.76C110.11 140.7 112.3 139.08 112.29 139.11C111.82 138.76 103.5 132.62 98.38 128.84C98.71 128.27 98.96 127.61 98.99 126.86C99.09 124.49 98.5 123.29 98.7 122.99C98.82 122.82 99.15 123.25 99.54 124.02C99.88 124.69 100.02 124.58 100.02 124.58C100.02 124.58 100.16 124.68 100.5 124.02C100.89 123.25 101.23 122.82 101.34 122.99C101.55 123.29 100.95 124.49 101.05 126.86C101.07 127.42 101.19 127.96 101.35 128.47C101.4 128.63 101.47 128.78 101.55 128.92C101.51 128.95 101.45 128.99 101.42 129.02C102.4 129.74 107.7 133.63 108.54 134.27C110.96 132.64 115.74 128.41 118.61 127.79L116.11 125.95C115.9 125.79 115.66 125.67 115.44 125.53C115.5 124.92 115.49 124.28 115.39 123.63C115.06 121.39 114.4 120.16 114.53 119.66C114.73 118.87 117.73 109.55 118.74 103.25C120.22 93.94 120.93 86.03 120.93 86.03C120.93 86.03 121.81 84.92 121.66 83.72C121.51 82.52 120.4 81.68 120.4 81.68C120.4 81.68 119.43 79.67 119.03 76.66C118.64 73.65 118.01 71.37 118.01 71.37C118.01 71.37 118.35 69.4 118.18 67.21C117.96 64.38 116.4 61.76 116.51 60.73C116.71 58.94 117.46 59.09 117.87 56C118.22 53.4 116.7 51.63 116.7 51.63C116.7 51.63 116.24 53.78 115.17 54.21C114.09 54.64 113.65 54.3 112.44 54.38C111.85 54.42 110.89 54.49 109.63 55.12C107.55 53.9 106.91 54.01 105.1 54.1C103.29 54.19 103.17 54.07 101.61 53.69C101.42 53.64 100.66 53.46 100.02 53.48C99.37 53.46 98.62 53.64 98.43 53.69C96.87 54.07 96.74 54.19 94.94 54.1C93.13 54.01 92.49 53.9 90.41 55.12C89.15 54.48 88.19 54.41 87.6 54.38C86.39 54.3 85.94 54.63 84.87 54.21C83.79 53.78 83.34 51.63 83.34 51.63C83.34 51.63 81.82 53.41 82.17 56C82.59 59.09 83.33 58.93 83.53 60.73C83.65 61.77 82.08 64.38 81.86 67.21C81.67 69.38 82 71.34 82 71.34C82 71.34 81.38 73.62 80.98 76.63C80.59 79.64 79.61 81.65 79.61 81.65C79.61 81.65 78.5 82.49 78.35 83.69C78.2 84.89 79.08 86 79.08 86C79.08 86 79.79 93.9 81.28 103.21ZM89.43 128.13C89.18 128.2 88.27 127.75 87.91 127.51C86.83 126.79 86.52 126.17 86.42 125.33C86.25 123.87 86.61 121.94 86.96 121.09C87.61 120.44 87.83 120.24 88.65 120.1C88.17 120.93 88.71 123.99 88.34 124.79C87.54 126.53 88.7 127.29 89.43 128.05V128.13ZM86.5 70.34C87.55 73.13 92.5 74.93 95.32 73.07C95.72 72.81 95.61 73.33 95.61 73.33C95.61 73.33 94.89 75.57 94.34 75.83C92.63 76.64 85.46 74.78 84.02 71.51C83.18 69.59 84.02 62.26 86.32 60.64C86.57 60.46 87.77 60.8 88 61.06C88.17 61.26 88.25 61.86 88.24 62.25C88.23 62.67 84.97 66.25 86.5 70.34ZM88.68 66.61C89.32 64.7 91.38 63.68 93.26 64.32C95.15 64.96 95.85 67.13 95.21 69.03C94.57 70.94 92.62 71.91 90.74 71.27C88.85 70.64 88.04 68.52 88.68 66.61ZM92.94 84.49C94.62 82.88 95.24 81.23 95.42 80.77C95.6 80.32 96.05 80.26 96.1 80.7C96.16 81.15 95.58 85.1 93.42 87.48C91.34 89.77 89.2 88.77 88.39 87.46C87.49 85.98 88.6 84.22 90.55 82.92C91.92 82.01 92.64 80.95 92.95 81.11C93.44 81.36 92.69 82.9 91.84 83.77C90.62 85.03 91.43 85.93 92.94 84.49ZM88.63 96.11C90.34 94.71 91.43 93.47 92.3 92.4C92.68 91.94 93 93.39 91.98 95.16C90.96 96.94 92.07 96.98 93.2 95.64C94.54 94.06 95.17 91.59 95.85 91.84C96.22 91.98 95.28 99.08 91.95 101.12C88.41 103.29 85.97 98.29 88.63 96.11ZM92.64 124.14C92.88 125.05 92.7 125.35 92.56 125.72C91.72 127.92 92.93 129.4 92.93 129.4L92.94 129.51C92.52 129.46 90.08 128.29 89.71 125.34C89.47 123.44 89.5 119.78 90.79 119.04C91.62 118.66 92.61 118.72 93.02 118.97C92.17 120.52 92.3 122.9 92.64 124.14ZM96.77 127.36C96.48 128.13 95.31 129.37 94.37 129.64L94.3 129.59C94.3 129.59 95.53 127.85 94.35 125.79C93.25 123.87 94.64 122.58 94.35 119.27C94.35 119.27 95.09 119.36 95.34 119.43C95.57 119.5 95.35 119.34 96.26 120.73C97.26 122.29 97.36 125.81 96.77 127.36ZM95.46 110.57C93.9 112.48 91.57 113.66 90.17 112.05C88.95 110.65 89.24 108.65 91.36 107.37C94.04 105.75 94.5 104.49 94.96 104.16C95.08 104.07 95.15 104.19 95.17 104.37C95.39 106.8 92.8 108.01 93.43 108.65C94.06 109.29 96.48 106.83 97.11 104.77C97.22 104.4 97.44 104.58 97.44 104.85C97.43 106.69 96.9 108.8 95.46 110.57ZM100 87.94C101.28 87.94 100.68 84.23 100.66 84.01C100.64 83.71 100.85 83.46 100.85 83.46C100.85 83.46 102.4 85.05 102.53 88.02C102.61 89.92 101.7 91.6 99.99 91.6C98.28 91.6 97.36 89.92 97.45 88.02C97.58 85.05 99.13 83.46 99.13 83.46C99.13 83.46 99.35 83.71 99.32 84.01C99.32 84.23 98.72 87.94 100 87.94ZM102.25 74.51C102.02 75.59 101.23 77.91 100 78.77C98.76 77.91 97.98 75.59 97.75 74.51C97.48 73.25 97.06 70.58 97.82 69.96C98.58 69.34 99.29 69.25 99.32 69.39C99.49 70.09 99.27 71.95 100.01 71.95C100.74 71.95 100.53 70.09 100.7 69.39C100.73 69.25 101.44 69.34 102.2 69.96C102.94 70.58 102.52 73.26 102.25 74.51ZM99.01 94.63C99.01 94.63 99.25 94.9 99.22 95.22C99.2 95.45 99.02 99.33 100 99.33C100.99 99.33 100.8 95.45 100.78 95.22C100.75 94.9 100.99 94.63 100.99 94.63C100.99 94.63 102.59 96.41 102.74 99.61C102.83 101.65 101.85 103.41 100 103.41C98.15 103.41 97.17 101.66 97.26 99.61C97.4 96.41 99.01 94.63 99.01 94.63ZM100 117.69C98.32 117.69 97.41 115.62 97.5 113.76C97.63 110.83 99.28 109.75 99.28 109.75C99.28 109.75 99.49 110 99.47 110.29C99.45 110.5 98.88 113.97 100 113.97C101.12 113.97 100.55 110.5 100.53 110.29C100.51 110 100.72 109.75 100.72 109.75C100.72 109.75 102.37 110.83 102.5 113.76C102.58 115.63 101.68 117.69 100 117.69ZM105.7 129.59L105.63 129.64C104.69 129.37 103.53 128.13 103.23 127.36C102.64 125.81 102.74 122.29 103.75 120.74C104.65 119.35 104.44 119.51 104.67 119.44C104.92 119.37 105.66 119.28 105.66 119.28C105.37 122.58 106.76 123.88 105.66 125.8C104.48 127.85 105.7 129.59 105.7 129.59ZM110.29 125.35C109.91 128.29 107.48 129.46 107.06 129.52L107.07 129.41C107.07 129.41 108.27 127.93 107.44 125.73C107.3 125.36 107.12 125.06 107.36 124.15C107.69 122.91 107.83 120.52 106.98 118.99C107.39 118.74 108.38 118.67 109.21 119.06C110.5 119.79 110.54 123.45 110.29 125.35ZM109.84 112.05C108.44 113.66 106.1 112.48 104.55 110.57C103.11 108.8 102.57 106.69 102.57 104.84C102.57 104.57 102.79 104.4 102.9 104.76C103.53 106.81 105.94 109.27 106.58 108.64C107.22 108 104.62 106.79 104.84 104.36C104.86 104.19 104.92 104.07 105.05 104.15C105.51 104.47 105.98 105.73 108.65 107.36C110.76 108.65 111.05 110.65 109.84 112.05ZM104.68 73.07C107.5 74.93 112.45 73.14 113.5 70.34C115.03 66.25 111.77 62.67 111.75 62.25C111.74 61.86 111.82 61.26 111.99 61.06C112.22 60.8 113.42 60.46 113.67 60.64C115.98 62.26 116.83 69.59 115.97 71.51C114.79 74.14 107.36 76.64 105.65 75.83C105.1 75.57 104.38 73.33 104.38 73.33C104.38 73.33 104.28 72.81 104.68 73.07ZM106.74 64.32C108.63 63.68 110.68 64.71 111.32 66.61C111.96 68.52 111.15 70.64 109.27 71.27C107.38 71.91 105.44 70.93 104.8 69.03C104.15 67.12 104.85 64.95 106.74 64.32ZM108.02 95.17C107 93.39 107.32 91.94 107.7 92.41C108.58 93.48 109.67 94.71 111.37 96.12C114.02 98.3 111.58 103.3 108.04 101.14C104.71 99.1 103.77 92 104.14 91.86C104.83 91.61 105.46 94.07 106.79 95.66C107.93 96.99 109.04 96.95 108.02 95.17ZM104.58 80.78C104.76 81.23 105.38 82.89 107.06 84.5C108.56 85.94 109.37 85.04 108.15 83.78C107.3 82.91 106.55 81.37 107.04 81.12C107.35 80.96 108.06 82.01 109.44 82.93C111.39 84.23 112.51 85.99 111.6 87.47C110.8 88.78 108.66 89.79 106.57 87.49C104.41 85.11 103.83 81.16 103.89 80.71C103.95 80.27 104.4 80.32 104.58 80.78ZM113.58 125.33C113.48 126.17 113.18 126.78 112.09 127.51C111.73 127.75 110.82 128.2 110.57 128.13L110.56 128.06C111.29 127.3 112.46 126.55 111.65 124.8C111.28 123.99 111.82 120.93 111.34 120.11C112.16 120.25 112.38 120.45 113.03 121.1C113.39 121.94 113.75 123.88 113.58 125.33ZM116.58 76.16C116.88 76.61 118.18 79.7 117.88 81.04C117.91 82.99 119.36 83.4 119.36 83.4C119.48 83.69 119.25 84.67 118.65 85.06C118.46 85.18 117.73 84.88 116.98 84.33C116.73 84.15 116.06 85.68 116.59 86.13C117.62 87.02 118.55 87.07 118.55 87.07C118.55 87.07 117.47 106.27 112.67 118.38C112.45 118.55 111.81 117.44 111.28 116.54C111.63 115.42 116.64 98.04 114.13 84.93C113.45 81.36 113.28 78.17 113.43 77.82C113.55 77.35 116.28 75.71 116.58 76.16ZM100.91 56.3C101.27 55.28 102.51 54.78 103.69 55.19C104.87 55.6 105.54 56.76 105.18 57.79C104.82 58.81 104.29 57.36 103.11 56.95C101.94 56.53 100.56 57.32 100.91 56.3ZM102.26 60.21C102.26 61.29 101.25 60.12 100 60.12C98.75 60.12 97.74 61.3 97.74 60.21C97.74 59.12 98.75 58.25 100 58.25C101.25 58.25 102.26 59.13 102.26 60.21ZM96.31 55.18C97.49 54.77 98.73 55.27 99.09 56.29C99.45 57.31 98.07 56.52 96.89 56.93C95.71 57.34 95.18 58.8 94.82 57.77C94.46 56.75 95.13 55.59 96.31 55.18ZM83.29 53.98C83.46 53.64 83.46 55.36 85.35 55.78C86.39 56.01 87.62 55.62 89.12 56.16C91.45 57 95.56 63.72 100 63.72C104.44 63.72 108.55 57 110.88 56.16C112.38 55.62 113.6 56.01 114.65 55.78C116.53 55.36 116.54 53.64 116.71 53.98C117.26 55.07 116.03 57.54 112.75 58.18C110.56 58.6 108.95 61.83 108.47 61.83C108.31 61.83 106.98 61.56 105.14 62.65C103.38 63.69 102.89 65.07 102.4 65.25C101.9 65.44 100.88 65.69 100 65.69C99.11 65.69 98.1 65.44 97.6 65.25C97.11 65.07 96.62 63.69 94.86 62.65C93.02 61.56 91.69 61.83 91.53 61.83C91.06 61.83 89.44 58.6 87.25 58.18C83.97 57.55 82.75 55.07 83.29 53.98ZM80.64 83.4C80.64 83.4 82.09 82.99 82.12 81.04C81.82 79.7 83.12 76.6 83.42 76.16C83.72 75.71 86.45 77.36 86.58 77.83C86.73 78.18 86.56 81.37 85.88 84.94C83.37 98.05 88.38 115.43 88.73 116.55C88.2 117.44 87.56 118.56 87.34 118.39C82.54 106.28 81.46 87.08 81.46 87.08C81.46 87.08 82.39 87.03 83.42 86.14C83.95 85.68 83.28 84.15 83.03 84.34C82.28 84.89 81.55 85.19 81.36 85.07C80.75 84.67 80.51 83.69 80.64 83.4ZM76.9 141.27C76.16 141.82 74.6 142.96 73.85 143.51C76.16 144.9 78.58 146.11 81.1 147.11C81.7 147.35 82.3 147.58 82.9 147.8C82.98 147.83 83.06 147.85 83.14 147.88C88.06 149.63 93.17 150.56 98.58 150.72C99.32 150.74 100.06 150.77 100.8 150.74L86.97 140.58C83.91 138.26 79.68 138.82 76.9 141.27ZM121.38 140.1C118.78 138.59 115.43 138.8 113.03 140.58L111.41 141.77C113.5 143.31 116.68 145.65 118.74 147.17C121.32 146.15 123.79 144.93 126.14 143.51C125.66 143.16 122.55 140.87 122.16 140.58C121.92 140.4 121.65 140.25 121.38 140.1ZM128.2 130.98C125.91 129.3 123.11 128.65 120.37 129.06C118.74 129.31 117.16 129.95 115.76 130.98L109.92 135.28L113.64 138.04L113.86 138.2C116.69 136.94 120.17 137.23 122.74 138.96C123.71 139.62 126.67 141.84 127.66 142.56C130.46 140.73 133.07 138.64 135.46 136.32L128.2 130.98ZM97.52 137.76C97.25 137.85 96.98 137.97 96.71 138.1C95.76 138.48 92.31 141.19 91.42 141.8C93 142.96 102.98 150.27 103.5 150.64C108.09 150.32 112.57 149.41 116.89 147.89C116.27 147.44 104.59 138.84 104.59 138.84C102.56 137.36 99.88 136.93 97.52 137.76Z" fill="black"/>
</svg>
